/* XPM */
static char *bamboo_block_top[] = {
/* columns rows colors chars-per-pixel */
"128 128 2 1 ",
"  c #22B14C",
". c #B5E61D",
/* pixels */
"                                                                                                                                ",
"                                                                                                    ......................      ",
"                                    ......................          ......................        .........................     ",
"      ..................           ........................        ........................      ..........................     ",
"    ......................        .........................        ........................      ......                ....     ",
"   ........................       .....                ....       .....                ....     ....                    ...     ",
"   ......            ......       ....                  ...       ....                  ...     ....                    ...     ",
"  .....                .....      ...                   ...       ....                  ...     ...                     ...     ",
"  ....                  ....      ...                   ...       ...                   ...     ...                     ...     ",
"  ....                  ....      ...                   ...       ...                   ...     ...                     ...     ",
"  ...                    ...     ....                   ...       ...       .....       ...     ...        ....         ...     ",
"  ...        ...         ...     ....        .....      ...       ...      .......      ...     ...       .......       ...     ",
"  ...      .......       ...     ...       ........     ...       ...     .........     ...     ...      .........      ...     ",
"  ...     .........      ...     ...      ..........    ...       ...     ..........    ...     ...     ..........      ...     ",
"  ...     ..........     ...     ...      ..........    ...       ...     ..........    ...     ...     ...........     ...     ",
"  ...     ..........     ...     ...      ..........    ...       ...     ..........    ...     ...     ...........     ....    ",
"  ...     ..........     ...     ...      ..........    ...       ...     .........     ...     ...     ...........     ....    ",
"  ...     ..........     ...     ...      ..........    ...       ...     .........     ...     ...     ..........       ...    ",
"  ...      .........     ...     ...      .........     ...       ...      .......      ...     ...      .........       ...    ",
"  ...       .......      ...     ...       ........     ...       ...       .....       ...     ...        ......        ...    ",
"  ...        ....        ...     ...        ......      ...       ...                   ...     ...                      ...    ",
"  ...                    ...     ...                    ...       ...                   ...     ...                      ...    ",
"  ...                    ...     ...                    ...       ...                   ...     ...                      ...    ",
"  ....                   ...     ...                    ...       ...                   ...     ....                     ...    ",
"  ....                   ...     ....                   ...       ...                  ....     ....                     ...    ",
"  .....                  ...     ....                  ....       ....                 ....      ....                   ....    ",
"   ...........      ........     ......          .........        .........................      ......              .......    ",
"   .........................      ........................        ........................       ...........................    ",
"    .......................       .......................          ......................         .........................     ",
"           ............             ................                                                 ...................        ",
"                                                                                                                                ",
"                                                                                                                                ",
"                                                                                                                                ",
"                                                                            ............                                        ",
"                                                                      ......................                                    ",
"     .....................            .....................          ........................      .........................    ",
"    ........................        .......................         ..........       ........     ...........................   ",
"    .........................      .........................        ....                 ....     ...........................   ",
"    ....                .....      ......               ....        ....                  ...     ....                   ....   ",
"   ....                  ....      ....                  ....       ...                   ....    ...                     ...   ",
"   ....                   ....     ...                   ....       ...                    ...    ...                     ...   ",
"   ...                    ....     ...                   ....       ...                    ...   ....                     ...   ",
"   ...                    ....     ...                    ....     ....       .....        ...   ....                     ...   ",
"   ...                     ...     ...                    ....     ....      .......       ...   ...                      ...   ",
"   ...       ......        ...     ...        ....        ....     ...      .........      ...   ...          .....       ...   ",
"   ...      ........       ...     ...       .......       ...     ...      ..........     ...   ...        ........      ...   ",
"   ...     ..........      ...     ...      .........      ...     ...      ..........     ...   ...       .........      ...   ",
"   ...     ...........     ...     ...      .........      ...     ...      ..........     ...   ...      ...........     ...   ",
"   ...     ...........     ...     ...      .........      ...     ...      ..........     ...   ...      ...........     ...   ",
"   ...     ...........     ...     ...      .........      ...     ...      ..........     ...   ...      ...........     ...   ",
"   ...     ...........     ...     ...      .........      ...     ...       ........      ...   ...      ...........     ...   ",
"   ...      .........      ...     ...      .........      ...     ...       .......       ...   ...      ..........      ...   ",
"   ...       .......       ...     ...       .......       ...     ....       .....        ...   ...       ........       ...   ",
"   ...        .....        ...     ...        .....        ...     ....                    ...   ...        ......        ...   ",
"   ....                    ...     ...                     ...     ....                    ...   ...                      ...   ",
"   ....                    ...     ...                     ...      ....                  ....   ...                      ...   ",
"   .....                   ...     ...                     ...      ....                  ...    ....                     ...   ",
"    .....                  ...     ...                     ...      .......              ....    .....                    ...   ",
"    ........              ....     ....                   ....       ........................    .......                 ....   ",
"     ............    .........     ......                .....        .......................     ...........................   ",
"       .......................     ...........................          ....................       .........................    ",
"         ...................        .........................                                         ......................    ",
"              ..........              .....................                                                                     ",
"                                                                                                                                ",
"                                                                                                                                ",
"                                                                                                                                ",
"       ..................                  ..............             .....................          ......................     ",
"    ........................          .....................         .........................       ..........................  ",
"   ..........................       ........................        .........................       ........................... ",
"   .......             ......       .........          ......       ....                .....       ....                ....... ",
"   ....                   ...       .....                ....       ...                   ...       ...                    .... ",
"  ....                    ...       ...                  ....       ...                   ...       ...                     ... ",
"  ....                    ...       ...                   ...       ...                   ...       ...                     ... ",
"  ....                    ...       ...                   ...       ...                   ...       ...                     ... ",
"  ...                     ...       ...                   ...       ...      .....        ...       ...                     ... ",
"  ...        .....        ...       ...      ......       ...       ...     ........      ...       ...      .......        ... ",
"  ...       ........      ...       ...     .........     ...       ...    ..........     ...       ...     .........       ... ",
"  ...      ..........     ...      ....     ..........    ...       ...    ..........     ...       ...    ...........      ... ",
"  ...     ............    ...      ....    ............   ...       ...   ............    ...       ...    ...........      ... ",
"  ...     ............    ...      ....    ............   ...       ...   ............    ...      ....    ...........      ... ",
"  ...     ............    ...      ...     ............   ...       ...   ............    ...      ....    ...........      ... ",
"  ...     ............    ...      ...     ............   ...      ....   ............    ...      ....    ...........      ... ",
"  ...     ............    ...      ...     ............   ...      ....    ...........    ...      ...     ...........     .... ",
"  ...      ...........    ...      ...      ..........    ...      ....     .........     ...      ...      .........      .... ",
"  ...      ..........     ...      ...       ........     ...      ...        ......      ...      ...       .......       .... ",
"  ...        ......       ...      ...        ......      ...      ...                    ...      ...         ....        ...  ",
"  ...                     ...      ...                    ...      ...                    ...      ...                     ...  ",
"  ...                     ...      ...                    ...      ...                    ...      ...                     ...  ",
"  ...                     ...      ...                    ...      ...                    ...      ...                     ...  ",
"  ...                     ...      ....                   ...      ....                   ...      ...                     ...  ",
"  ....                    ...      ....                  ....      .....               ......      ....                  .....  ",
"  ......                  ...      .......         ..........      ..........................      ...........................  ",
"  ...........................       ........................        .........................      ...........................  ",
"   .........................        ........................         .....................          ........................    ",
"     .......................           ...............                                                                          ",
"                                                                                                                                ",
"                                                                                                                                ",
"                                                                         ................                                       ",
"       .......................                                          ....................          .......................   ",
"     .........................        .......................          .......................        ........................  ",
"    ...........................      ..........................        .....          .........      .........................  ",
"    ......                 ....      ..........................       .....              ......      ....                  ...  ",
"    ....                   ....      ....                  ....       ....                 ....     ....                   ...  ",
"   ....                     ...      ...                    ...       ....                  ...     ....                   ...  ",
"   ....                     ...      ...                    ...       ...                   ....    ...                     ... ",
"   ...                      ...      ...                    ...       ...                   ....   ....                     ... ",
"   ...                      ...      ...                    ...      ....                    ...   ....       .......       ... ",
"   ...       .......        ...      ...                    ...      ....      ......        ...   ....      .........      ... ",
"   ...      .........       ...      ...       .......      ...      ...      ........       ...   ...      ...........     ... ",
"   ...     ...........      ...      ...      .........     ...      ...     ..........      ...   ...      ...........     ... ",
"   ...     ...........      ...      ...     ...........    ...      ...     ...........     ...   ...     ............     ... ",
"   ...    .............     ...      ...     ...........    ...      ...     ...........     ...   ...     ............     ... ",
"   ...    .............     ...      ...     ...........    ...      ...     ...........     ...   ...     ............     ... ",
"   ...    .............     ...      ...     ...........    ...      ...     ...........     ...   ...     ............     ... ",
"   ...     ............     ...      ...     ..........     ...      ...     ..........      ...   ...     ............     ... ",
"   ...     ...........      ...      ...     ..........     ...      ...      .........      ...   ...      ..........      ... ",
"   ...      ..........      ...      ...      ........      ...      ...       .......       ...   ...       ........       ... ",
"   ...       ........       ...      ...        ....        ...      ...        ....         ...   ...        ......        ... ",
"   ...         .....        ...      ...                    ...      ...                     ...   ...                     ...  ",
"   ...                      ...      ....                   ...      ...                     ...   ...                     ...  ",
"   ...                      ...      ....                   ...      ...                     ...   .....                   ...  ",
"   ...                      ...      ....                   ...      ....                    ...   ......                  ...  ",
"   ...                      ...       ....                  ...      .........               ...    .........            .....  ",
"   .....                .......       ........              ...       ..........................     .........................  ",
"   ............................       .........................        ........................        .......................  ",
"   ..........................           .....................              ....................           ..................    ",
"        ................                    .................                                                                   ",
"                                                                                                                                "
};
