/* XPM */
static char *bamboo_slab_side[] = {
/* columns rows colors chars-per-pixel */
"128 128 3 1 ",
"  c #FFC90E",
". c #22B14C",
"X c #EFE4B0",
/* pixels */
"                                                                                                                                ",
"                                                                                                                                ",
"                                                                                                                                ",
"                                                                                                                                ",
"                                                                             ........                ...............            ",
"              ............                   ..........                ..................           ..................          ",
"         ..................             ................              .....................        .....................        ",
"        ....................        .....................            ..........    .........       .....         .........      ",
"        ........       .....       ............     ......           .....            ......       ....            ........     ",
"        ....            ....       .......            ....          .....               ....       ...               ......     ",
"        ...              ...      .....               .....         ....                 ...       ...                 ....     ",
"       ....              ....     ....                 ....         ...                  ...       ...                  ...     ",
"       ....              ....     ....                  ...         ...                  ...       ...                  ...     ",
"       ...                ...     ...                   ...         ...                  ...       ...                  ...     ",
"       ...                ...     ...                   ...         ...                  ...       ...                  ...     ",
"      ....                ...     ...                   ...         ...                  ...       ...                  ...     ",
"      ....                ...     ...                   ...         ...                  ...       ...                  ...     ",
"      ....                ...     ...                   ...         ...                  ...       ...                  ...     ",
"      ...                 ...     ...                   ...         ...                  ...       ...                  ...     ",
"      ...                 ...     ...                   ...         ...                  ...       ...                  ...     ",
"      ...                 ...     ...                   ...         ...                  ...       ...                  ...     ",
"     ....                 ...     ...                   ...         ...                  ...       ...                  ...     ",
"     ....                 ...     ...                   ...         ...                  ...       ...                  ...     ",
"     ...                  ...     ...                   ...         ...                  ...       ...                  ...     ",
"     ...                  ...     ...                   ...         ...                  ...       ...                  ...     ",
"     ...                  ...     ...                   ...         ...                  ...       ...                  ...     ",
"     ...                  ...     ...                   ...         ...                  ....      ...                  ...     ",
"     ...                  ...     ....                  ...         ...                  ....      ...                  ...     ",
"     ...                  ...     ....                  ...         ....          XXXXXXXX...      ...XXXXXXXXXXXXX     ...     ",
"     ...                  ...      ...                  ...         ....XXXXXXXXXXXXXXXXXX...      ...XXXXXXXXXXXXXXXXXX...     ",
"     ...                  ...      ...                  ...          ...XXXXXXXXXXXXXXXXXX...      ...XXXXXXXXXXXXXXXXXX...     ",
"     ...XXXXX             ...      ...       XXXXXXXXXXX...          ...XXXXXXXXXXXXXXXXXX...      ...XXXXXXXXXXXXXXXXXX...     ",
"     ...XXXXXXXXXXXXXXXXXX...      ...XXXXXXXXXXXXXXXXXX...          ...XXXXXXXXXXX       ...      ...             XXXXX...     ",
"     ...XXXXXXXXXXXXXXXXXX...      ...XXXXXXXXXXXXXXXXXX...          ...                  ...      ...                  ...     ",
"     ...XXXXXXXXXXXXXXXXXX...      ...XXXXXXXXXXXXXXXXXX....         ...                  ...      ...                  ...     ",
"     ...     XXXXXXXXXXXXX...      ...XXXXXXXX          ....         ...                  ....     ...                  ...     ",
"     ...                  ...      ....                  ...         ...                  ....     ...                  ...     ",
"     ...                  ...      ....                  ...         ...                   ...     ...                  ...     ",
"     ...                  ...       ...                  ...         ...                   ...     ...                  ...     ",
"     ...                  ...       ...                  ...         ...                   ...     ...                  ...     ",
"     ...                  ...       ...                  ...         ...                   ...     ...                  ...     ",
"     ...                  ...       ...                  ...         ...                   ...     ...                 ....     ",
"     ...                  ...       ...                  ...         ...                   ...     ...                 ....     ",
"     ...                  ...       ...                  ...         ...                   ...     ...                 ...      ",
"     ...                  ...       ...                  ...         ...                   ...     ...                 ...      ",
"     ...                  ...       ...                  ...         ...                   ...     ...                 ...      ",
"     ...                  ...       ...                  ...         ...                   ...     ...                ....      ",
"     ...                  ...       ...                  ...         ...                   ...     ...                ....      ",
"     ...                  ...       ...                  ...         ...                   ...     ...                ....      ",
"     ...                  ...       ...                  ...         ...                   ...     ...                ...       ",
"     ...                  ...       ...                  ...         ...                   ...     ...                ...       ",
"     ...                  ...       ...                  ...         ...                  ....     ....              ....       ",
"     ...                  ...       ...                  ...         ....                 ....     ....              ....       ",
"     ....                 ...       ...                 ....         .....               .....      ...              ...        ",
"     ......               ...       ....               .....          ....            .......       ....            ....        ",
"     ........            ....       ......            .....           ......     ............       .....       ........        ",
"      .........         .....       .........    ..........            .....................        ....................        ",
"        .....................        .....................              ................             ..................         ",
"          ..................           ..................                ..........                   ............              ",
"            ...............                ........                                                                             ",
"                                                                                                                                ",
"                                                                                                                                ",
"                                                                                                                                ",
"                                                                                                                                ",
"                                                                                                                                ",
"                                                                                                                                ",
"                                                                                                                                ",
"                                                                                                                                ",
"                                                                             ........                ...............            ",
"              ............                   ..........                ..................           ..................          ",
"         ..................             ................              .....................        .....................        ",
"        ....................        .....................            ..........    .........       .....         .........      ",
"        ........       .....       ............     ......           .....            ......       ....            ........     ",
"        ....            ....       .......            ....          .....               ....       ...               ......     ",
"        ...              ...      .....               .....         ....                 ...       ...                 ....     ",
"       ....              ....     ....                 ....         ...                  ...       ...                  ...     ",
"       ....              ....     ....                  ...         ...                  ...       ...                  ...     ",
"       ...                ...     ...                   ...         ...                  ...       ...                  ...     ",
"       ...                ...     ...                   ...         ...                  ...       ...                  ...     ",
"      ....                ...     ...                   ...         ...                  ...       ...                  ...     ",
"      ....                ...     ...                   ...         ...                  ...       ...                  ...     ",
"      ....                ...     ...                   ...         ...                  ...       ...                  ...     ",
"      ...                 ...     ...                   ...         ...                  ...       ...                  ...     ",
"      ...                 ...     ...                   ...         ...                  ...       ...                  ...     ",
"      ...                 ...     ...                   ...         ...                  ...       ...                  ...     ",
"     ....                 ...     ...                   ...         ...                  ...       ...                  ...     ",
"     ....                 ...     ...                   ...         ...                  ...       ...                  ...     ",
"     ...                  ...     ...                   ...         ...                  ...       ...                  ...     ",
"     ...                  ...     ...                   ...         ...                  ...       ...                  ...     ",
"     ...                  ...     ...                   ...         ...                  ...       ...                  ...     ",
"     ...                  ...     ...                   ...         ...                  ....      ...                  ...     ",
"     ...                  ...     ....                  ...         ...                  ....      ...                  ...     ",
"     ...                  ...     ....                  ...         ....          XXXXXXXX...      ...XXXXXXXXXXXXX     ...     ",
"     ...                  ...      ...                  ...         ....XXXXXXXXXXXXXXXXXX...      ...XXXXXXXXXXXXXXXXXX...     ",
"     ...                  ...      ...                  ...          ...XXXXXXXXXXXXXXXXXX...      ...XXXXXXXXXXXXXXXXXX...     ",
"     ...XXXXX             ...      ...       XXXXXXXXXXX...          ...XXXXXXXXXXXXXXXXXX...      ...XXXXXXXXXXXXXXXXXX...     ",
"     ...XXXXXXXXXXXXXXXXXX...      ...XXXXXXXXXXXXXXXXXX...          ...XXXXXXXXXXX       ...      ...             XXXXX...     ",
"     ...XXXXXXXXXXXXXXXXXX...      ...XXXXXXXXXXXXXXXXXX...          ...                  ...      ...                  ...     ",
"     ...XXXXXXXXXXXXXXXXXX...      ...XXXXXXXXXXXXXXXXXX....         ...                  ...      ...                  ...     ",
"     ...     XXXXXXXXXXXXX...      ...XXXXXXXX          ....         ...                  ....     ...                  ...     ",
"     ...                  ...      ....                  ...         ...                  ....     ...                  ...     ",
"     ...                  ...      ....                  ...         ...                   ...     ...                  ...     ",
"     ...                  ...       ...                  ...         ...                   ...     ...                  ...     ",
"     ...                  ...       ...                  ...         ...                   ...     ...                  ...     ",
"     ...                  ...       ...                  ...         ...                   ...     ...                  ...     ",
"     ...                  ...       ...                  ...         ...                   ...     ...                 ....     ",
"     ...                  ...       ...                  ...         ...                   ...     ...                 ....     ",
"     ...                  ...       ...                  ...         ...                   ...     ...                 ...      ",
"     ...                  ...       ...                  ...         ...                   ...     ...                 ...      ",
"     ...                  ...       ...                  ...         ...                   ...     ...                 ...      ",
"     ...                  ...       ...                  ...         ...                   ...     ...                ....      ",
"     ...                  ...       ...                  ...         ...                   ...     ...                ....      ",
"     ...                  ...       ...                  ...         ...                   ...     ...                ....      ",
"     ...                  ...       ...                  ...         ...                   ...     ...                ...       ",
"     ...                  ...       ...                  ...         ...                   ...     ...                ...       ",
"     ...                  ...       ...                  ...         ...                  ....     ....              ....       ",
"     ...                  ...       ...                  ...         ....                 ....     ....              ....       ",
"     ....                 ...       ...                 ....         .....               .....      ...              ...        ",
"     ......               ...       ....               .....          ....            .......       ....            ....        ",
"     ........            ....       ......            .....           ......     ............       .....       ........        ",
"      .........         .....       .........    ..........            .....................        ....................        ",
"        .....................        .....................              ................             ..................         ",
"          ..................           ..................                ..........                   ............              ",
"            ...............                ........                                                                             ",
"                                                                                                                                ",
"                                                                                                                                ",
"                                                                                                                                ",
"                                                                                                                                "
};
