/* XPM */
static char *bamboo_block[] = {
/* columns rows colors chars-per-pixel */
"128 128 3 1 ",
"  c #22B14C",
". c #B5E61D",
"X c #EFE4B0",
/* pixels */
"                                                                                                                                ",
"                                                                                                                                ",
"                                                                                                                                ",
"                                                                                                                                ",
"     ...................                                                   .........                                            ",
"     ....................          ..................                ...................              ...............           ",
"    ......................        ......................            ......................           ..................         ",
"    ....           .......        ........................         ..........     .........         .....................       ",
"    ...               ....       .....            ........         .....             ......         .....         .........     ",
"    ...                ...       ....                 ....        .....                ....         ....            ........    ",
"    ...                ...       ....                  ...        ....                  ...         ...               ......    ",
"    ...                ...       ...                   ...        ...                   ...         ...                 ....    ",
"    ...                ...       ...                   ...        ...                   ...         ...                  ...    ",
"    ...                ...       ...                   ...        ...                   ...         ...                  ...    ",
"    ...                ...       ...                   ...        ...                   ...         ...                  ...    ",
"    ...                ...       ...                   ...        ...                   ...         ...                  ...    ",
"    ...                ...       ...                   ...        ...                   ...         ...                  ...    ",
"    ...                ...       ...                   ...        ...                   ...         ...                  ...    ",
"    ...                ...       ...                   ...        ...                   ...         ...                  ...    ",
"    ...                ...       ...                   ...        ...                   ...         ...                  ...    ",
"    ...                ...       ...                   ...        ...                   ...         ...                  ...    ",
"    ...                ...       ...                   ...        ...            XXXXXXX...         ...                  ...    ",
"    ...                ...       ...                   ...        ...XXXXXXXXXXXXXXXXXXX...         ...XXXXXXXXXXXXXXXXXX...    ",
"    ...                ...       ...                   ...        ...XXXXXXXXXXXXXXXXXXX...         ...XXXXXXXXXXXXXXXXXX...    ",
"    ...XXXXXXXXXXXXXXXX...       ...               XXXX...        ...XXXXXXXXXXXXXXXXXXX...         ...XXXXXXXXXXXXXXXXXX...    ",
"    ...XXXXXXXXXXXXXXXX...       ...XXXXXXXXXXXXXXXXXXX...        ...XXXXXXXXXXXXX      ...         ...XXXXXXXXXXXXXXXXXX...    ",
"    ...XXXXXXXXXXXXXXXX...       ...XXXXXXXXXXXXXXXXXXX...        ...                   ...         ...                  ...    ",
"    ...XXXXXXXXXXXXXXXX...       ...XXXXXXXXXXXXXXXXXXX...        ...                   ...         ...                  ...    ",
"    ...                ...       ...XXXXXXXXXXXXXXXX   ...        ...                   ...         ...                  ...    ",
"    ...                ...       ...                   ...        ...                   ...         ...                  ...    ",
"    ...                ...       ...                   ...        ...                   ...         ...                  ....   ",
"    ...                ...      ....                   ...        ...                   ...         ...                  ....   ",
"    ...                ...      ....                   ...        ...                   ...         ...                  ....   ",
"    ...                ...      ....                   ...        ...                   ...         ...                   ...   ",
"    ...                ...      ...                    ...        ...                   ...         ...                   ...   ",
"    ...                ...      ...                    ...        ...                   ...         ...                   ...   ",
"    ...                ...      ...                    ...        ...                   ...         ...                   ...   ",
"    ...                ...      ...                    ...        ...                   ...         ...                   ...   ",
"    ...                ...      ...                    ...        ...                   ...         ...                   ...   ",
"    ...                ...      ...                    ...        ...                   ...         ...                   ...   ",
"    ...                ...      ...                    ...        ...                   ...         ...                   ...   ",
"    ...                ...      ...                    ...        ...                   ...         ...                   ...   ",
"    ...                ...      ...                    ...        ...                   ...         ....                  ...   ",
"    ...                ...      ...                    ...        ...                   ...         ....                  ...   ",
"    ...                ...      ...                    ...        ...                   ...          ...                  ...   ",
"    ...                ...      ...                    ...        ...                   ...          ...                  ...   ",
"    ...                ...      ...                    ...        ...                   ...          ...                  ...   ",
"    ...                ...      ...                    ...        ...                   ...          ...                  ...   ",
"    ...                ...      ...                    ...        ...                   ...          ...                  ...   ",
"    ...                ...      ...                    ...        ...                   ...          ...                  ...   ",
"    ...                ...      ...                    ...        ...                   ...          ...                  ...   ",
"    ...                ...      ...                    ...        ...                   ....         ...                  ...   ",
"    ...                ...      ...                    ...        ...                   ....         ...                  ...   ",
"    ...                ...      ...                    ...        ...                    ...         ...                  ...   ",
"    ...                ...      ...                    ...        ...                    ...         ...                  ...   ",
"    ...                ...      ...                    ...        ...                    ...         ...                  ...   ",
"   ....                ...      ...                    ...        ...                    ...         ...                  ...   ",
"   ....                ....     ...                    ...        ...                    ...         ...                  ...   ",
"   ....                ....     ....                   ...        ...                    ...         ...                  ...   ",
"   ...                 ....     ....                   ...        ...                    ...         ...                  ...   ",
"   ...                  ...     ....                   ...        ...                    ...         ...                  ...   ",
"   ...                  ...      ...                   ...        ...                    ...         ...                  ...   ",
"   ...                  ...      ...                   ...        ...                    ...         ...                  ...   ",
"   ...                  ...      ...                   ...        ...                    ...         ...                  ...   ",
"   ...                  ...      ...                   ...        ...                    ...         ...                  ...   ",
"   ...                  ...      ...                   ...        ...                    ...         ...                  ...   ",
"   ...                  ...      ...                   ...        ...                    ...         ...                  ...   ",
"   ...                  ...      ...                   ...        ...                    ...         ...                  ...   ",
"   ...                  ...      ...                   ...        ...                    ...         ...                  ...   ",
"   ...                  ...      ...                   ...        ...                    ...         ...                  ...   ",
"   ...                  ...      ...                   ...        ...                    ...         ...                  ...   ",
"   ...                  ...      ...                   ...        ...                    ...         ...                  ...   ",
"   ...                  ...      ...                   ...        ...                    ...         ...                  ...   ",
"   ...                  ...      ...                   ...        ...                    ...         ...                  ...   ",
"   ...                  ...      ...                   ...        ...                    ...         ...                  ...   ",
"   ...                  ...      ...                   ...        ...                    ...         ...                 ....   ",
"   ...                  ...      ....                  ...        ...                    ...         ...                 ....   ",
"   ...                  ...      ....                  ...        ...                    ...         ...                 ...    ",
"   ...                  ...       ...                  ...        ...                    ...        ....                 ...    ",
"   ...                  ...       ...                  ...        ...                    ...        ....                 ...    ",
"   ...                  ...       ...                  ...        ...                    ...        ...                  ...    ",
"   ...                  ...       ...                  ...        ...                    ...        ...                  ...    ",
"   ...                  ...       ...                  ...        ...                    ...        ...                  ...    ",
"   ...                  ...       ...                  ...        ...                    ...        ...                  ...    ",
"   ...                  ...       ...                  ...        ....                   ...        ...                  ...    ",
"   ...                  ...       ...                  ...        ....                   ...        ...                  ...    ",
"   ...                  ...       ...                  ...         ...                   ...        ...                  ...    ",
"   ...                  ...       ...                  ....        ...                   ...        ...                  ...    ",
"   ...                  ...       ...                  ....        ...                   ...        ...                  ...    ",
"   ...                  ...       ...                   ...        ...                   ...        ...                  ...    ",
"   ...                  ...       ...                   ...        ...                   ...        ...                  ...    ",
"   ...                  ...       ...                   ...        ...                   ...        ...                  ...    ",
"   ...                  ...       ...                   ...        ...                   ...        ...                  ...    ",
"   ...                  ...       ...                   ...        ...                   ...        ...                  ...    ",
"   ...                  ...       ...                   ...        ...                   ...        ...                  ...    ",
"   ...                  ...       ...                   ...        ...                   ...        ...                  ...    ",
"   ...                  ...       ...                   ...        ...                   ...        ...                  ...    ",
"   ...                  ...       ...                   ...        ...                   ...        ...                  ...    ",
"   ...                  ...       ...                   ...        ...                   ...        ...                  ...    ",
"   ...                  ...       ...                   ...        ...                   ...        ...                  ...    ",
"   ...                  ...       ...                   ...        ...                   ....       ...                  ...    ",
"   ...XXXXXXXXXXXXXXXXXX...       ...                   ...        ...                   ....       ...                  ...    ",
"   ...XXXXXXXXXXXXXXXXXX...       ...XXXXXXXXXXXX       ...        ...                    ...       ...                  ...    ",
"   ...XXXXXXXXXXXXXXXXXX...       ...XXXXXXXXXXXXXXXXXXX...        ...XX                  ...       ...                  ...    ",
"   ...XXXXXXXXXXXXXXXXXX...       ...XXXXXXXXXXXXXXXXXXX...        ...XXXXXXXXXXXXXXXXXXXX...       ...                  ...    ",
"   ....                 ...       ...    XXXXXXXXXXXXXXX...        ...XXXXXXXXXXXXXXXXXXXX...       ...                  ...    ",
"   ....                 ...       ...            XXXXXXX...        ...XXXXXXXXXXXXXXXXXXXX...       ...XXXXXXXXXXXXX     ...    ",
"    ...                 ...       ...                   ...        ...  XXXXXXXXXXXXXXXXXX...       ...XXXXXXXXXXXXXXXXX....    ",
"    ...                 ...       ...                   ...        ...                    ...       ...XXXXXXXXXXXXXXXXX....    ",
"    ...                 ...       ...                   ...        ...                    ...       ...XXXXXXXXXXXXXXXXX...     ",
"    ...                 ...       ...                   ...        ...                    ...       ...             XXXX...     ",
"    ...                 ...       ...                   ...        ...                    ...       ...                 ...     ",
"    ...                 ...       ...                   ...        ...                    ...       ...                ....     ",
"    ...                 ...       ...                   ...        ...                    ...       ...                ....     ",
"    ...                 ...       ...                   ...        ...                    ...       ...                ....     ",
"    ...                 ...       ...                   ...        ...                    ...       ...                ...      ",
"    ...                 ...       ...                   ...        ...                   ....       ...                ...      ",
"    ...                 ...       ....                  ...        ....                  ....       ....              ....      ",
"    ...                ....       ....                  ...        .....                .....       ....              ....      ",
"    ....              .....       ....                  ...         ....             .......         ...              ...       ",
"    .....         .........        ....                ....         ......      ............         ....            ....       ",
"    ......................         .....             ......          ......................          .....       ........       ",
"     ....................          ........................           .................              ....................       ",
"       .............                ......................             ...........                    ..................        ",
"                                     ...................                                               ............             ",
"                                                                                                                                ",
"                                                                                                                                ",
"                                                                                                                                "
};
