/* XPM */
static char *bamboo_mosaic[] = {
/* columns rows colors chars-per-pixel */
"128 128 3 1 ",
"  c #FFC90E",
". c #22B14C",
"X c #EFE4B0",
/* pixels */
"                                                                                                                                ",
"                                                                                                                                ",
"                                                                                                                                ",
"                                                                                                                                ",
"                                                                           .............                 .............          ",
"        ...................................                              .................            ..................        ",
"       ..........................................                      ....................          ....................       ",
"       ..............................................                 ........       .......         ......        ......       ",
"      .....                  XXXX        ................             ......           .....        .....            .....      ",
"      ....                   XXXX             ............           .....              ....        ....              .....     ",
"     .....                   XXXX                  .......           ....                ....       ....               ....     ",
"     ....                    XXXX                     ....          .....                ....      ....                ....     ",
"    .....                    XXXX                      ...          ....                 ....      ....                 ...     ",
"    ....                    XXXX                       ...          ....                  ...      ....                 ...     ",
"    ....                    XXXX                       ....         ...                   ...      ...                  ...     ",
"    ...                     XXXX                       ....        ....                   ...      ...                  ...     ",
"    ...                     XXXX                        ...        ....                   ...      ...                  ...     ",
"    ...                     XXXX                        ...        ...                    ...     ....                  ...     ",
"    ...                     XXXX                        ...        ...                    ...     ....                  ...     ",
"    ...                     XXXX                        ...        ...                    ...     ...                   ...     ",
"    ...                     XXXX                        ...        ...                    ...     ...                   ...     ",
"    ...                     XXXX                        ...        ...                    ...     ...                   ...     ",
"    ...                     XXXX                        ...        ...                    ...     ...                   ...     ",
"    ...                     XXXX                       ....        ...                    ...     ...                   ...     ",
"    ....                    XXXX                      .....        ...                    ...     ...                   ...     ",
"    .....                   XXXX                   ........        ...                    ...     ...                   ...     ",
"    ......................................................         ...                    ...     ...                   ...     ",
"     ....................................................          ...            XXXXXXXX...     ...                   ...     ",
"      ...............................................              ...XXXXXXXXXXXXXXXXXXXX...     ...XXXXXXXXXX         ...     ",
"                                                                   ...XXXXXXXXXXXXXXXXXXXX...     ...XXXXXXXXXXXXXXXXXXX...     ",
"                                                                   ...XXXXXXXXXXXXXXXXXXXX...     ...XXXXXXXXXXXXXXXXXXX...     ",
"                                                                   ...XXXXXXXXXXXXXX      ....    ...XXXXXXXXXXXXXXXXXXX...     ",
"                                                                   ...                    ....    ...         XXXXXXXXXX...     ",
"                                                                   ...                    ....    ...                   ...     ",
"                                   ...................             ...                     ...    ...                   ...     ",
"                          ..............................           ...                     ...    ...                   ...     ",
"       ..................................................          ...                     ...    ...                   ...     ",
"      ...............................              ......          ...                     ...    ...                   ...     ",
"      ......................XXXX                     ....          ...                     ....   ...                   ...     ",
"     .....                  XXXX                      ...          ...                     ....   ...                   ...     ",
"     ....                   XXXX                      ....         ...                     ....   ....                  ...     ",
"     ....                   XXXX                      ....         ...                      ...   ....                  ...     ",
"     ...                    XXXX                       ...         ....                     ...   ....                  ...     ",
"    ....                    XXXX                       ...         ....                     ...    ...                 ....     ",
"    ....                    XXXX                       ...          ...                     ...    ...                 ....     ",
"    ...                     XXXXX                      ....         ...                     ...    ....                ....     ",
"    ...                      XXXX                      ....         ....                    ...    ....                ...      ",
"    ...                      XXXX                       ...         ....                    ...     ...                ...      ",
"    ...                      XXXX                       ...         ....                    ...     ...               ....      ",
"    ....                     XXXX                       ...          ...                   ....     ...               ....      ",
"    ....                     XXXX                       ...          ...                   ....     ...               ....      ",
"     ...                     XXXX                       ...          ....                 ....      ....             ....       ",
"     ...                     XXXX                      ....          ....               ......      ....             ....       ",
"     ...                     XXXX                      ....          .....             ......        ...            .....       ",
"     ....                    XXXX                    ......           ....           ........        ....           ....        ",
"     .....                   XXXX                   ......            .....................          .....         .....        ",
"     ......                 .............................              ...................            ........  .......         ",
"      ..................................................                ................              ................          ",
"       ...............................................                                                 ..............           ",
"         .....................                                                                             ........             ",
"                                                                                                                                ",
"                                                                                                                                ",
"                                                                                                                                ",
"                                                                                                                                ",
"                                                                                                                                ",
"                                                                                                                                ",
"                                                                                                                                ",
"                                                                                ......................................          ",
"             .............                                                ..............................................        ",
"          .................            .................                ..................................................      ",
"        ...................           ...................              ............           XXXX                  .......     ",
"       ........        .....         .....................            .......                 XXXX                   ......     ",
"      .......           ....         .....           .....            .....                   XXXX                     .....    ",
"      .....             .....       .....             .....          .....                    XXXX                      ....    ",
"     .....               ....       ....               ....          ....                     XXXX                      ....    ",
"     ....                ....       ....               ....          ...                      XXXX                       ...    ",
"     ....                 ...       ...                 ...         ....                      XXXXX                      ...    ",
"     ...                  ...      ....                 ...         ....                       XXXX                      ...    ",
"    ....                  ...      ....                 ...         ...                        XXXX                      ...    ",
"    ....                  ...      ....                 ...         ...                        XXXX                      ...    ",
"    ...                   ...      ...                  ...         ...                        XXXX                      ...    ",
"    ...                   ...      ...                  ...         ...                        XXXX                      ...    ",
"    ...                   ...      ...                  ...         ...                        XXXX                      ...    ",
"   ....                   ...      ...                  ...         ...                        XXXX                      ...    ",
"   ....                   ...      ...                  ...         ....                       XXXX                      ...    ",
"   ....                   ...      ...                  ....        ....                       XXXX                      ...    ",
"   ...                    ...      ...                  ....        .....                      XXXX                     ....    ",
"   ...                    ...      ...                   ...         ....                      XXXX                   ......    ",
"   ...                    ...      ...                   ...         .....                     XXXX              ...........    ",
"   ...                    ...      ...                   ...          ......                   XXXX........................     ",
"   ...                    ...      ...                   ...          ...................................................       ",
"   ...                    ...      ...                   ...           .............................................            ",
"   ...                    ...      ...                   ...              ...........................                           ",
"   ...                    ...      ...                   ...                                                                    ",
"   ...                    ...      ...            XXXXXXX...                                                                    ",
"   ...XXX           XXXXXX...      ...XXXXXXXXXXXXXXXXXXX...                                                                    ",
"   ...XXXXXXXXXXXXXXXXXXXX...      ...XXXXXXXXXXXXXXXXXXX...                                                                    ",
"   ...XXXXXXXXXXXXXXXXXXXX...      ...XXXXXXXXXXXXXXXXXXX...                                       ....................         ",
"   ...XXXXXXXXXXXXXXXXXXXX...      ...XXXXXXXXXXXXX      ...                       .......................................      ",
"   ...   XXXXXXXXXXXX     ...      ...                   ...               ................................................     ",
"   ...                    ...      ...                   ...            .............................               .......     ",
"   ...                    ...      ...                   ...          ................          XXXX                   .....    ",
"   ...                    ...      ...                   ...         ........                   XXXX                    ....    ",
"   ...                    ...      ...                   ...         .....                      XXXX                     ....   ",
"   ...                    ...      ...                   ...         ....                       XXXX                     ....   ",
"   ...                    ...      ...                  ....        ....                        XXXX                     ....   ",
"   ...                    ...      ...                  ....        ....                        XXXX                      ...   ",
"   ...                    ...      ...                  ...         ....                        XXXX                      ...   ",
"   ...                    ...      ...                  ...         ...                         XXXX                      ...   ",
"   ...                    ...      ...                  ...         ...                         XXXX                      ...   ",
"   ...                    ...      ...                  ...         ...                         XXXX                      ...   ",
"   ...                   ....      ...                  ...         ...                        XXXX                       ...   ",
"   ...                   ....      ....                 ...         ...                        XXXX                       ...   ",
"   ...                   ....      ....                 ...         ...                        XXXX                       ...   ",
"   ....                  ...       ....                 ...         ...                        XXXX                      ....   ",
"   ....                  ...        ...                 ...         ...                        XXXX                      ....   ",
"    ...                  ...        ....                ...         ....                       XXXX                      ...    ",
"    ....                ....        ....               ....         .....                      XXXX                     ....    ",
"    .....               ....        .....              ....         ........                   XXXX                    .....    ",
"    .......             ....         .....            .....          ..................................             ........    ",
"     ........          ....          .......        ......            .....................................................     ",
"      .........      ......           ...................                .................................................      ",
"        ...................            .................                                            ...................         ",
"          ................               ..............                                                                         ",
"             ..........                                                                                                         ",
"                                                                                                                                ",
"                                                                                                                                ",
"                                                                                                                                "
};
