/* XPM */
static char *bamboo_planks[] = {
/* columns rows colors chars-per-pixel */
"128 128 3 1 ",
"  c #FFC90E",
". c #22B14C",
"X c #EFE4B0",
/* pixels */
"                                                                                                                                ",
"                                                                                                                                ",
"                                                                                                                                ",
"                              ...............................................                                                   ",
"         ....................................................................................................                   ",
"        ...........................................................................................................             ",
"        .........................                                          ............................................         ",
"       .....          XXXX                                                                         XXXX    ................     ",
"       ....           XXXX                                                                         XXXX         ............    ",
"      .....           XXXX                                                                         XXXX              .......    ",
"      ....            XXXX                                                                         XXXX                 ....    ",
"     .....            XXXX                                                                         XXXX                  ...    ",
"     ....             XXXX                                                                        XXXX                   ...    ",
"     ....             XXXX                                                                        XXXX                   ....   ",
"     ...              XXXX                                                                        XXXX                   ....   ",
"     ...              XXXX                                                                        XXXX                    ...   ",
"     ...              XXXX                                                                        XXXX                    ...   ",
"     ...              XXXX                                                                        XXXX                    ...   ",
"     ...              XXXX                                                                        XXXX                    ...   ",
"     ...              XXXX                                                                        XXXX                    ...   ",
"     ...              XXXX                                                                        XXXX                    ...   ",
"     ...              XXXX                                                                        XXXX                    ...   ",
"     ...              XXXX                                                                        XXXX                   ....   ",
"     ....             XXXX                                                                        XXXX                  .....   ",
"     .....            XXXX                ......................................                  XXXX               ........   ",
"     .......................................................................................................................    ",
"      .....................................................................................................................     ",
"       .....................................                                  .........................................         ",
"                                                                                                                                ",
"                                                                                                                                ",
"                                                                                                                                ",
"                                                                                                                                ",
"                                                                                                                                ",
"                                                                                                                                ",
"                                                                                                                                ",
"                                     ...................                                                                        ",
"..........................................................                                                          ............",
"...........................................................             ........................................................",
".......................................              ......            .........................................................",
"                                 XXXX                  ....            ...............................................          ",
"                                 XXXX                   ...           .....           XXXX                                      ",
"                                 XXXX                   ....          ....            XXXX                                      ",
"                                 XXXX                   ....          ....            XXXX                                      ",
"                                 XXXX                    ...          ...             XXXX                                      ",
"                                 XXXX                    ...         ....             XXXX                                      ",
"                                 XXXX                    ...         ....             XXXX                                      ",
"                                 XXXX                    ....        ...              XXXXX                                     ",
"                                 XXXX                    ....        ...               XXXX                                     ",
"                                 XXXX                     ...        ...               XXXX                                     ",
"                                 XXXX                     ...        ...               XXXX                                     ",
"                                 XXXX                     ...        ...               XXXX                                     ",
"                                 XXXX                     ...        ....              XXXX                                     ",
"                                 XXXX                     ...        ....              XXXX                                     ",
"                                 XXXX                     ...         ...              XXXX                                     ",
"                                 XXXX                    ....         ...              XXXX                                     ",
"                                 XXXX                    ....         ...              XXXX                                     ",
"                                XXXX                   ......         ....             XXXX                                     ",
"                                XXXX                  ......          .....            XXXX                                     ",
"                     ......................................           ......           XXXX                                     ",
"..........................................................             .........................................................",
"........................................................                ........................................................",
".......................                                                   ......................................................",
"                                                                                                                                ",
"                                                                                                                                ",
"                                                                                                                                ",
"                                                                                                                                ",
"                                                                                                                                ",
"                                                                                                                                ",
"                                                                                       ....................................     ",
"       .....................................................................................................................    ",
"       .....................................................................................................................    ",
"      ...................................................................................      XXXX                     .....   ",
"      ....              XXXX                                                                   XXXX                      ....   ",
"      ...               XXXX                                                                   XXXX                      ....   ",
"     ....               XXXX                                                                   XXXX                       ...   ",
"     ....               XXXXX                                                                  XXXX                       ...   ",
"     ....                XXXX                                                                  XXXX                       ...   ",
"     ...                 XXXX                                                                  XXXX                       ...   ",
"     ...                 XXXX                                                                 XXXX                        ...   ",
"     ...                 XXXX                                                                 XXXX                        ...   ",
"     ...                 XXXX                                                                 XXXX                        ...   ",
"     ...                 XXXX                                                                 XXXX                        ...   ",
"     ...                 XXXX                                                                 XXXX                        ...   ",
"     ...                 XXXX                                                                 XXXX                        ...   ",
"     ...                 XXXX                                                                 XXXX                        ...   ",
"     ...                 XXXX                                                                 XXXX                        ...   ",
"     ...                 XXXX                                                                 XXX                         ...   ",
"     ...                 XXXX                                                                 XXX                        ....   ",
"     ...                 XXXX                                                                 XXX                       .....   ",
"     ....                XXXX                                                                 XXX                    ........   ",
"     ......              XXXX                                               ................................................    ",
"     .............................                        .................................................................     ",
"      ..................................................................................................................        ",
"        ......................................................................                                                  ",
"                               ..............................                                                                   ",
"                                                                                                                                ",
"                                                                                                                                ",
"                                                                                                                                ",
"                                                                                                                                ",
"                                                                                                                                ",
"..........................................................                                                                ......",
"...........................................................            .........................................................",
"............................................................          ..........................................................",
"                              XXXX                     .....         ........................................................   ",
"                              XXXX                      ....         .....               XXXX                                   ",
"                              XXXX                       ...         ....                XXXX                                   ",
"                              XXXX                       ...         ....                XXXX                                   ",
"                              XXXX                       ....        ....                XXXX                                   ",
"                              XXXX                       ....        ...                 XXXX                                   ",
"                              XXXX                        ...        ...                 XXXX                                   ",
"                              XXXX                        ...        ...                 XXXX                                   ",
"                              XXXX                        ...        ...                 XXXX                                   ",
"                              XXXX                        ...        ...                 XXXX                                   ",
"                              XXXX                        ...        ...                 XXXX                                   ",
"                              XXXX                        ...        ...                 XXXX                                   ",
"                              XXXX                        ...        ...                 XXXX                                   ",
"                              XXXX                        ...        ...                 XXXX                                   ",
"                              XXXX                        ...        ...                 XXXX                                   ",
"                              XXXX                       ....        ...                 XXXX                                   ",
"                              XXXX                      .....        ....                XXXX                                   ",
"                              XXXX        ..................         .......................................................    ",
"............................................................         ...........................................................",
"...........................................................            .........................................................",
"............................................                                                                             .......",
"                                                                                                                                ",
"                                                                                                                                ",
"                                                                                                                                ",
"                                                                                                                                "
};
