/* XPM */
static char *barrel_side[] = {
/* columns rows colors chars-per-pixel */
"128 128 4 1 ",
"  c #B97A57",
". c #880015",
"X c #C3C3C3",
"o c gray50",
/* pixels */
"                                                                                                                                ",
"                                                                                                                                ",
"          .............                                               ...................                  ..............       ",
"        .................           ....................          ........................            .....................     ",
"      .....................       ........................        .........................       ..........................    ",
"      .......       .......      .........................        ......              ......     .............        ......    ",
"     ......           .....      .....               .....       ....                   ....     ........               ....    ",
"    .....               ...      ....                  ....      ....                   ....    .....                    ...    ",
"    ....                ...      ...                   ....      ...                     ...    ....                     ....   ",
"    ....                ...      ...                    ...      ...                     ...    ....                     ....   ",
"    ...                 ...      ...                    ...      ...                     ...    ...                       ...   ",
"    ...                 ...      ...                    ...      ...                     ...    ...                       ...   ",
"    ...                 ...      ...                    ...      ...                     ...    ...                       ...   ",
"    ...                 ...      ...                    ...      ...                     ...    ...                       ...   ",
"    ...                 ...      ...                    ...      ...                     ...    ...                       ...   ",
"    ...                 ...      ...                    ...      ...                     ...    ...                       ...   ",
"    ...                 ...      ...                    ...      ...                     ...    ...                       ...   ",
"    ...                 ...      ...                    ...      ....                    ...    ....                      ...   ",
"    ...                 ...      ...                    ...      ....                    ...    ....                      ...   ",
"   ....                 ...      ...                    ...      ....                    ...     ...                      ...   ",
"   ....                 ...      ...                    ...       ...                    ...     ...                      ...   ",
"   ...         XXXXXXXXXXXXXXXXXXXXXXXXXXXXXXXXXXXXXXX  ...       ...                    ...     ...                      ...   ",
"XXXXXXXXXXXXXXXXXXXXXXXXXXXXXXXXXXXXXXXXXXXXXXXXXXXXXXXXXXXXXXXXXXXXX                    ...     ...      XXXXXXXXXXXXXXXXXXXXXX",
"XXXXXXXXXXXXXXXXXXXXXXXXXXXXXXXXXXXXXXXXXXXXXXXXXXXXXXXXXXXXXXXXXXXXXXXXXXXXXXXXXXXXXXXXXXXXXXXXXXXXXXXXXXXXXXXXXXXXXXXXXXXXXXXX",
"XXXXXXXXXXXXXXXXXXXXXXXXXXXXXXXXXXXXXXXXXXXXXXXXXXXXXXXXXXXXXXXXXXXXXXXXXXXXXXXXXXXXXXXXXXXXXXXXXXXXXXXXXXXXXXXXXXXXXXXXXXXXXXXX",
"XXXXXXXXXXXXXXXXooooooooooooooooooooooooooooooooooooooXXXXXXXXXXXXXXXXXXXXXXXXXXXXXXXXXXXXXXXXXXXXXXXXXXXXXXXXXXXXXXXXXXXXXXXXXX",
"oooooooooooooooooooooooooooooooooooooooooooooooooooooooooooooooooooooXXXXXXXXXXXXXXXXXXXXXXXXXXXXXXXXXXXXXXXXooooooooooooooooooo",
"oooooooooooooooooooooooooooooooooooooooooooooooooooooooooooooooooooooooooooooooooooooooooooooooooooooooooooooooooooooooooooooooo",
"oooooooooooooooooooooooooooooooooooooooooooooooooooooooooooooooooooooooooooooooooooooooooooooooooooooooooooooooooooooooooooooooo",
"oooooooooooooooooooooooooooooooooooooooooooooooooooooooooooooooooooooooooooooooooooooooooooooooooooooooooooooooooooooooooooooooo",
"oooooooooooooooooooooooooooooooooooooooooooooooooooooooooooooooooooooooooooooooooooooooooooooooooooooooooooooooooooooooooooooooo",
"oooooooooooooooooooooooooooooooooooooooooooooooooooooooooooooooooooooooooooooooooooooooooooooooooooooooooooooooooooooooooooooooo",
"oooooooooooooooooooooooooooooooooooooooooooooooooooooooooooooooooooooooooooooooooooooooooooooooooooooooooooooooooooooooooooooooo",
"oooooooooooooooooooooooooooooooooooooooooooooooooooooooooooooooooooooooooooooooooooooooooooooooooooooooooooooooooooooooooooooooo",
"oooooooooooooooooooooooooooooooooooooooooooooooooooooooooooooooooooooooooooooooooooooooooooooooooooooooooooooooooooooooooooooooo",
"oooooooooooooooooooooooooooooooooooooooooooooooooooooooooooooooooooooooooooooooooooooooooooooooooooooooooooooooooooooooooooooooo",
"oooooooooooooooooooooooooooooooooooooooooooooooooooooooooooooooooooooooooooooooooooooooooooooooooooooooooooooooooooooooooooooooo",
"oooooooooooooooooooooooXXXXXXXXXXXXXXXXXXXXXXXXXXXXXXXXXXXXXXXXXXXXXXXXXXXXXXXXXXXXXXXXXXXXooooooooooooooooooooooooooooooooooooo",
"XXXXXXXXXXXXXXXXXXXXXXXXXXXXXXXXXXXXXXXXXXXXXXXXXXXXXXXXXXXXXXXXXXXXXXXXXXXXXXXXXXXXXXXXXXXXXXXXXXXXXXXXXXXXXXXXXXXXXXXXXXXXXXXX",
"XXXXXXXXXXXXXXXXXXXXXXXXXXXXXXXXXXXXXXXXXXXXXXXXXXXXXXXXXXXXXXXXXXXXXXXXXXXXXXXXXXXXXXXXXXXXXXXXXXXXXXXXXXXXXXXXXXXXXXXXXXXXXXXX",
"XXXXXXXXXXXXXXXXXXXXXXXXXXXXXXXXXXXXXXXXXXXXXXXXXXXXXXXXXXXXXXXXXXXXXXXXXXXXXXXXXXXXXXXXXXXXXXXXXXXXXXXXXXXXXXXXXXXXXXXXXXXXXXXX",
"XXXXXXXXXXXXXXXXXXXXXXXXXX      ...                    ....       ...                  ....XXXXXXXXXXXXXXXXXXXXXXXXXXXXXXXXXXXXX",
"   ...                 ...      ...                    ...        ...                  ....      ...                     ...    ",
"   ...                 ...      ...                    ...        ...                  ...       ...                     ...    ",
"   ...                 ...      ...                    ...        ...                  ...       ...                     ...    ",
"   ...                 ...      ...                    ...        ...                  ...       ...                     ...    ",
"   ...                 ...      ...                    ...        ...                  ...       ...                     ...    ",
"   ...                 ...      ...                    ...        ...                  ...       ...                     ...    ",
"   ...                 ...      ...                    ...        ...                  ...       ...                     ...    ",
"   ...                 ...      ...                    ...        ...                  ...       ...                     ...    ",
"   ...                 ...      ...                    ...        ...                  ...       ...                     ...    ",
"   ...                 ...      ...                    ...        ...                  ...       ...                     ...    ",
"   ...                 ...      ...                    ...        ...                  ...       ...                     ...    ",
"   ...                 ...      ...                    ...        ...                  ...       ...                     ...    ",
"   ...                 ...      ...                    ...        ...                  ...       ...                     ...    ",
"   ...                 ...      ...                    ...        ...                  ...       ...                     ...    ",
"   ...                 ...      ...                    ...        ...                 ....       ...                     ...    ",
"   ...                 ...      ...                    ...        ...                 ....       ...                     ...    ",
"   ...                 ...      ...                    ...        ...                 ...        ...                     ...    ",
"   ...                 ...      ...                    ...        ...                 ...        ...                     ...    ",
"   ...                 ...      ...                    ...        ...                 ...        ...                     ...    ",
"   ...                 ...      ...                    ...        ...                 ...        ...                     ...    ",
"   ...                 ...      ...                    ...        ...                 ...        ...                     ...    ",
"   ...                 ...      ...                   ....       ....                 ...        ...                     ...    ",
"   ...                 ...      ...                   ....       ....                 ...        ...                     ...    ",
"   ...                 ...      ...                   ...        ...                  ...        ...                     ...    ",
"   ...                ....      ...                   ...        ...                  ...        ...                     ...    ",
"   ...                ...       ...                   ...        ...                  ...        ...                     ...    ",
"   ...                ...       ...                   ...        ...                  ...        ...                     ...    ",
"   ...                ...       ...                   ...        ...                  ...        ...                     ...    ",
"   ...                ...      ....                   ...        ...                  ...        ...                     ...    ",
"   ...                ...      ....                   ...        ...                  ...        ...                     ...    ",
"   ...                ...      ...                    ...        ...                  ...        ...                     ...    ",
"   ...                ...      ...                    ...        ...                  ...        ...                     ...    ",
"   ...                ...      ...                    ...        ...                  ...        ...                     ...    ",
"   ...                ...      ...                    ...        ...                  ...        ...                     ...    ",
"   ...                ...      ...                    ...        ...                  ...        ...                     ...    ",
"   ...                ...      ...                    ...        ...                  ...        ...                     ...    ",
"   ...                ...      ...                    ...        ...                  ...        ...                     ...    ",
"   ...                ...      ...                    ...        ...                  ...        ...                     ...    ",
"   ...                ...      ...                    ...        ...                  ...        ...                     ...    ",
"   ...                ...      ...                    ...        ...                  ...        ...                     ...    ",
"   ...                ...      ...                    ...        ...                  ...        ...                     ...    ",
"   ...                ...      ...                    ...        ...                  ...        ...                     ...    ",
"   ...                ...      ...                    ...        ...                  ...        ...                     ...    ",
"   ...                ...      ...                   ....        ...                  ...        ...                     ...    ",
"XXXXXXXXXXXXXXXXXXXXXXXXXXXX   ...                   ....        ...                  ...        ...             XXXXXXXXXXXXXXX",
"XXXXXXXXXXXXXXXXXXXXXXXXXXXXXXXXXXXXXXXXXXXXX        ...        ....                  ...       .XXXXXXXXXXXXXXXXXXXXXXXXXXXXXXX",
"XXXXXXXXXXXXXXXXXXXXXXXXXXXXXXXXXXXXXXXXXXXXXXXXXXXXXXXXXXXXXXXXXXXXXXXXXXXXXXXXXXXXXXXXXXXXXXXXXXXXXXXXXXXXXXXXXXXXXXXXXXXXXXXX",
"XXXXXXXXXXXXXXXXXXXXXXXXXXXXXXXXXXXXXXXXXXXXXXXXXXXXXXXXXXXXXXXXXXXXXXXXXXXXXXXXXXXXXXXXXXXXXXXXXXXXXXXXXXXXXXXXXXXXXXXXXXXXXXXX",
"oooooooooooooooooooooooooXXXXXXXXXXXXXXXXXXXXXXXXXXXXXXXXXXXXXXXXXXXXXXXXXXXXXXXXXXXXXXXXXXXXXXXXXXXXXXXXXXXXXXXXXoooooooooooooo",
"ooooooooooooooooooooooooooooooooooooooooooooXXXXXXXXXXXXXXXXXXXXXXXXXXXXXXXXXXXXXXXXXXXXXXXXXXXXXXoooooooooooooooooooooooooooooo",
"oooooooooooooooooooooooooooooooooooooooooooooooooooooooooooooooooooooooooooooooooooooooooooooooooooooooooooooooooooooooooooooooo",
"oooooooooooooooooooooooooooooooooooooooooooooooooooooooooooooooooooooooooooooooooooooooooooooooooooooooooooooooooooooooooooooooo",
"oooooooooooooooooooooooooooooooooooooooooooooooooooooooooooooooooooooooooooooooooooooooooooooooooooooooooooooooooooooooooooooooo",
"oooooooooooooooooooooooooooooooooooooooooooooooooooooooooooooooooooooooooooooooooooooooooooooooooooooooooooooooooooooooooooooooo",
"oooooooooooooooooooooooooooooooooooooooooooooooooooooooooooooooooooooooooooooooooooooooooooooooooooooooooooooooooooooooooooooooo",
"oooooooooooooooooooooooooooooooooooooooooooooooooooooooooooooooooooooooooooooooooooooooooooooooooooooooooooooooooooooooooooooooo",
"oooooooooooooooooooooooooooooooooooooooooooooooooooooooooooooooooooooooooooooooooooooooooooooooooooooooooooooooooooooooooooooooo",
"oooooooooooooooooooooooooooooooooooooooooooooooooooooooooooooooooooooooooooooooooooooooooooooooooooooooooooooooooooooooooooooooo",
"oooooooooooooooooooooooooooooooooooooooooooooooooooooooooooooooooooooooooooooooooooooooooooooooooooooooooooooooooooooooooooooooo",
"oooooooooooooooooooooooooooooooooooooooooooooooooooooooooooooooooooooooooooooooooooooooooooooooooooooooooooooooooooooooooooooooo",
"oooooooooooooooooooooooooooooooooooooooooooooooooooooXXXXXXXXXXXXXXXXXXXXXXXXXXXXXXXXXXXXXXXXXXXXXXXXXoooooooooooooooooooooooooo",
"XXXXXXXXXXXXXXXXXXXXXXXXXXXXXXXXXXXXXXXXXXXXXXXXXXXXXXXXXXXXXXXXXXXXXXXXXXXXXXXXXXXXXXXXXXXXXXXXXXXXXXXXXXXXXXXXXXXXXXXXXXXXXXXX",
"XXXXXXXXXXXXXXXXXXXXXXXXXXXXXXXXXXXXXXXXXXXXXXXXXXXXXXXXXXXXXXXXXXXXXXXXXXXXXXXXXXXXXXXXXXXXXXXXXXXXXXXXXXXXXXXXXXXXXXXXXXXXXXXX",
"XXXXXXXXXXXXXXXXXXXXXXXXXXXXXXXXXXXXXXXXXXXXXXXXXXXXXXXXXXXXXXXXXXXXXXXXXXXXXXXXXXXXXXXXXXXXXXXXXXXXXXXXXXXXXXXXXXXXXXXXXXXXXXXX",
"XXXXXXXXXXXXXXXXXXXXXXXXXXXXXXXXXXXXXXXXXXXXXXXXXXXXXXXXX       ...                   ...      ...    XXXXXXXXXXXXXXXXXXXXXXXXXX",
"    ...                 ...    ...                    ...       ...                   ...      ...                        ...   ",
"   ....                 ...    ...                    ...       ...                   ...      ...                        ...   ",
"   ....                 ...    ...                    ...       ...                   ...      ...                        ...   ",
"   ....                 ...    ...                    ...       ...                   ...      ...                        ...   ",
"   ...                  ...    ...                    ...       ...                   ...      ...                        ...   ",
"   ...                  ...    ...                    ...       ...                   ...      ...                        ...   ",
"   ...                  ...    ...                    ...       ...                   ...      ...                        ...   ",
"   ...                  ...    ...                    ...       ...                   ...      ...                        ...   ",
"   ...                  ...    ...                    ...       ...                   ...      ...                        ...   ",
"   ...                  ...    ...                    ...       ...                   ...      ...                        ...   ",
"   ...                  ...    ...                    ...       ...                   ...      ...                       ....   ",
"   ....                 ...    ...                   ....       ....                  ...      ...                       ....   ",
"   ....                 ...    ...                   ....       ....                 ....      ...                       ...    ",
"   ....                 ...    ...                  ....        ......              .....      ....                     ....    ",
"    ...                ....    ....              .......         .......................       .......                  ....    ",
"    ....               ....    .........................         .......................       .............................    ",
"    ......................     ........................            ....................         ...........................     ",
"    ......................      ....................                                                ......................      ",
"     .....................                                                                                                      ",
"                                                                                                                                ",
"                                                                                                                                "
};
