/* XPM */
static char *bookshelf[] = {
/* columns rows colors chars-per-pixel */
"128 128 11 1 ",
"  c #EFE4B0",
". c #B97A57",
"X c #880015",
"o c black",
"O c #ED1C24",
"+ c #B5E61D",
"@ c #22B14C",
"# c #FF7F27",
"$ c #FFF200",
"% c #3F48CC",
"& c #00A2E8",
/* pixels */
"                                                                                                                                ",
"                                                                                                                                ",
"                                                                                                                                ",
"      ....................................................................................................................      ",
"     ......................................................................................................................     ",
"    .......................................................................................................................     ",
"    .......................................................................................................................     ",
"   ........................................................................................................................     ",
"   ........................................................................................................................     ",
"   ........................................................................................................................     ",
"   ...................................................                                .....................................     ",
"   .......                                                                                                          ........    ",
"   ......                                                                                                             ......    ",
"   ......                                                                                                             ......    ",
"   ......                                                XXXXXXXXXXXXXXXXXXXXXXXXXooooo                               ......    ",
"   ......     XXXXXXXXXXXXXXXXXXXXXXXXXXXXXXXXXXXXXXXXXXXXXXXXXXXXXXXXXXXXXXXXXXXoooooooooooooXXXXXXXXXXXXXXXXXXXX    ......    ",
"   ......    XXXXXXXXXXXXXXXOOOOOOOOOOOXXXXXXXXXXXXXXXXXXXXXXXXXXXX++++XXXXXXXXXXooOOOoooooooooXXXXXXXXXXXXXXXXXXX    ......    ",
"   ......    XXXXXXXXXXXXXXOOOOOOOOOOOOOOOOXXXXXXXXXXXXXXXXXXXXX++++++++XXXXXXXXXooOOOOOOOOOOooXXXXXXXXXXXXXXXXXXX    ......    ",
"  .......    XXXXXXXXXXXXXXOOO........OOOOOOXXXXXXXXXXXXXXXXXX++++++@@++XXXXXXXXXooOOOOOOOOOOooXXXXXXXXXXXXXXXXXXX    ......    ",
"  .......    XXXXXXXXXXXXXXOO.............OOXXXXXXXXXXXXXXXXX++++@@@@@++XXXXXXXXXooOOOOOOOOOOooXXXXXXXXXXXXXXXXXXX     .....    ",
"  .......    XXXXXXXXXXXXXXOO.............OOXXXXXXXXXXXXXXXXX++@@@@@@@++XXXXXXXXXooOOOOOOOOOOoooXXXXXXXXXXXXXXXXXXX    .....    ",
"  .......    XXXXXXXXXXXXXXOO.............OOXXXXXXXXXXXXXXXXX++@@@@@@@++XXXXXXXXXooOOOOOOOOOOOooXXXXXXXXXXXXXXXXXXX    .....    ",
"  .......    XXXXXXXXXXXXXXOO.............OOXXXXXXXXXXXXXXXXX++@@@@@@@++XXXXXXXXXooOOOOOOOOOOOooXXXXXXXXXXXXXXXXXXX    ......   ",
"  .......    XXXXXXXXXXXXXXOO.............OOXXXXXXXXXXXXXXXXX++@@@@@@@++XX#######ooOOOOOOOOOOOooXXXXXXXXXXXXXXXXXXX    ......   ",
"  .......    XXXXXXXXXXXXXXOO.............OOXXXXXXXXXXXXXXXXX++@@@@@@@###########ooOOOOOOOOOOOooXXXXXXXXXXXXXXXXXXX    ......   ",
"  .......    XXXXXXXXXXXXXXOO.............OOXXXXXXXXXXXXXXXXX++@@@@@@#######$$$$$ooOOOOOOOOOOOooXXXXXXXXXXXXXXXXXXX    ......   ",
"  .......    ooooooooooooXXOO.............OOXXXXXXXXXXXXXXXXX++@@@@@@###$$$$$$$$$oooOOOOOOOOOOooXXXXXXXXXXXXXXXXXXX    ......   ",
"  .......    oooooooooooooooO.............OOXXXXXXXXXXXXXXXXX++@@@@@@##$$$$$$$$$$$ooOOOOOOOOOOooXXXXXXXXXXXXXXXXXXX    ......   ",
"  .......    OOOOOOOOOOOooooo.............ooooooXXXXXXXXXXXXX++@@@@@@##$$$$$$$$$$$ooOOOOOOOOOOooXXXXXXXXXXXXXXXXXXX    ......   ",
"  .......    OOOOOOOOOOOOOooo.............ooooooooooXXXXXXXXX++@@@@@@##$$$$$$$$$$$ooOOOOOOOOOOoooXXXXXXXXXXXXXXXXXX    ......   ",
"  .......    OOOOOOOOOOOOOOoo.............ooOOOOoooooXXXXXXXX++@@@@@@##$$$$$$$$$$$ooOOOOOOOOOOOoo%%%%%%%%%XXXXXXXXX    ......   ",
"  .......    OOOOOOOOOOOOOOoo.............ooOOOOOOOooXXXXXXXX++@@@@@@##$$$$$$$$$$$ooOOOOOOOOOOOoo%%%%%%%%%%XX++++++    ......   ",
"  .......    OOOOOOOOOOOOOOoo............oooOOOOOOOooXXXXXXXX++@@@@@@##$$$$$$$$$$$ooOOOOOOOOOOOoo&&&&&&&&%%++++++++    ......   ",
"  .......    OOOOOOOOOOOOOOoo............ooOOOOOOOOooXXXXXXX+++@@@@@@##$$$$$$$$$$$ooOOOOOOOOOOOoo&&&&&&&&%%++++@@@@    ......   ",
"  .......    OOOOOOOOOOOOOOoo............ooOOOOOOOOooXXXXXXX++@@@@@@@##$$$$$$$$$$$ooOOOOOOOOOOOoo&&&&&&&&%%@@@@@@@     ......   ",
"  .......    OOOOOOOOOOOOOOoo............ooOOOOOOOOooXXXXXXX++@@@@@@@##$$$$$$$$$$$ooOOOOOOOOOOOoo&&&&&&&&%%@@@@@@@     ......   ",
"  .......    OOOOOOOOOOOOOOoo............ooOOOOOOOOooXXXXXXX++@@@@@@@##$$$$$$$$$$$ooOOOOOOOOOOOoo&&&&&&&&%%@@@@@@@    .......   ",
"  .......    OOOOOOOOOOOOOOoo............ooOOOOOOOOoo%%%%%%%++@@@@@@@##$$$$$$$$$$$oooOOOOOOOOOOoo&&&&&&&&%%@@@@@@@    .......   ",
"  .......    OOOOOOOOOOOOOOoo............ooOOOOOOOOoo%%%%%%%++@@@@@@@##$$$$$$$$$$$oooOOOOOOOOOOoo&&&&&&&&%%@@@@@@@    .......   ",
"  .......    OOOOOOOOOOOOOOoo............ooOOOOOOOOoo&&&&&&&++@@@@@@@##$$$$$$$$$$$$ooOOOOOOOOOOoo&&&&&&&&%%@@@@@@@    .......   ",
"  .......     OOOOOOOOOOOOOoo...........oooOOOOOOOOoo&&&&&&&++@@@@@@@##$$$$$$$$$$$$ooOOOOOOOOOOoo&&&&&&&&%%@@@@@@@    .......   ",
"  ........    OOOOOOOOOOOOooo...........ooOOOOOOOOOoo&&&&&&&++@@@@@@@##$$$$$$$$$$$$ooOOOOOOOOOOoo&&&&&&&&%%@@@@@@@    .......   ",
"  ........    OOOOOOOOOOOOooo...........ooOOOOOOOOooo&&&&&&&++@@@@@@@##$$$$$$$$$$$$ooOOOOOOOOOOoo&&&&&&&%%%@@@@@@@    .......   ",
"  ........    OOOOOOOOOOOOoo............ooOOOOOOOOoo&&&&&&&&++@@@@@@@##$$$$$$$$$$$$ooOOOOOOOOOOoo&&&&&&&%%%@@@@@@@    .......   ",
"  ........    OOOOOOOOOOOOoo............ooOOOOOOOOoo&&&&&&&&++@@@@@@@##$$$$$$$$$$$$ooOOOOOOOOOOoo&&&&&&&%%@@@@@@@@    .......   ",
"  ........    OOOOOOOOOOOOoo............ooOOOOOOOOoo&&&&&&&&++@@@@@@@##$$$$$$$$$$$$ooOOOOOOOOOOoo&&&&&&&%%@@@@@@@@    .......   ",
"   .......    OOOOOOOOOOOOoo............ooOOOOOOOOoo&&&&&&&&++@@@@@@@##$$$$$$$$$$$$ooOOOOOOOOOOooo&&&&&&%%@@@@@@@@    .......   ",
"   .......    OOOOOOOOOOOOoo............ooOOOOOOOOoo&&&&&&&&++@@@@@@@##$$$$$$$$$$$$ooOOOOOOOOOOOoo&&&&&&%%@@@@@@@@    .......   ",
"   .......    OOOOOOOOOOOOoo............ooOOOOOOOOoo&&&&&&&&++@@@@@@@##$$$$$$$$$$$$ooOOOOOOOOOOOoo&&&&&&%%@@@@@@@@    .......   ",
"   .......    OOOOOOOOOOOOoo............ooOOOOOOOOoo&&&&&&&&++@@@@@@@##$$$$$$$$$$$$ooOOOOOOOOOOOoo&&&&&&%%@@@@@@@@    .......   ",
"   .......    OOOOOOOOOOOOoo............ooOOOOOOOOoo&&&&&&&&++@@@@@@@##$$$$$$$$$$$$ooOOOOOOOOOOOoo&&&&&&%%@@@@@@@@    .......   ",
"   .......    OOOOOOOOOOOOoo............ooOOOOOOOOoo&&&&&&&&++@@@                                                     .......   ",
"   .......    OOOOOOOOOOOOoo............                                                                              .......   ",
"   .......                                                                                                            .......   ",
"   .......                                                                                                          .........   ",
"   .......                                                        ...........................................................   ",
"   ........                              ....................................................................................   ",
"   ..........................................................................................................................   ",
"   ..........................................................................................................................   ",
"   ..........................................................................................................................   ",
"   ..........................................................................................................................   ",
"   ..........................................................................................................................   ",
"   ..........................                                   .............................                        ........   ",
"   ........                                                                                                           .......   ",
"   .......                                                                                                            .......   ",
"   .......                                                                                                            .......   ",
"   ......                      XXXXXXXXXXXXXXXXXXXXXXXXXXXXXXX                                 XXXXXXXXXXXXXXXXXX     .......   ",
"   ......    XXXXXXXXXXXXXXXXXXXXXXXXXXXXXXXXXXXXXXXXXXXXXXXXXXXXXXXXXXXXXXXXXXXXXXXXXXXXXXXXXXXXXXXXXXXXXXXXXXXXX    .......   ",
"   ......    XXXXXXXXXXXXXXXXXXXXXXXXXXXXXXXXXXXXXXXXXXXXXXXXXXXXXXXXXXXXXXXXXXXXXXXXXXXXXXXXXXXXXXXXXXXXXXXXXXXXX    .......   ",
"   ......    XXXXXXXXXXXXXXXXXXXXXXXXXXXXXXXXXXXXXXXXXXXXXXXXXXXXXXXXXXXXXXXXXXXXXXXXXXXXXXXXXXXXXXXXXXXXXXXXXXXXX    .......   ",
"   ......    XXXXXXXXXXXXXXXXXXXXXXXXXXXXXXXXXXXXXXXXXXXXXXXXXXXXXXXXXXXXXXXXXXXXXXXXXXXXXXXXXXXXXXXXXXXXXXXXXXXXX    .......   ",
"   ......    XXXXXXXXXXXXXXXXXXXXXXXXXXXXXXXXXXXXXXXXXXXXXXXXXXXXXXXXXXXXXXXXXXXXXXXXXXXXXXXXXXXXXXXXXXXXXXXXXXXXX    .......   ",
"   ......    XXXXXXXXXXXXXXXXXXXXXXXXXXXXXXXXXXXXXXXXXXXXXXXXXXXXXXXXXXXXXXXXXXXXXXXXXXXXXXXXXXXXXXXXXXXXXXXXXXXXX    .......   ",
"   ......    XXXXXXXXXXXXXXXXXXXXXXXXXXXXXXXXXXXXXXXXXXXXXXXXXXXXXXXXXXXXXXXXXXXXXXXXXXXXXXXXXXXXXXXXXXXXXXXXXXXXX    .......   ",
"   ......    XXXXXXXXXXXXXXXXXXXXXXXXXXXXXXXXXXXXXXXXXXXXXXXXXXXXXXXXXXXXXXXXXXXXXXXXXXXXXXXXXXXXXXXXXXXXXXXXXXXXX    .......   ",
"   ......    XXXXXXXXXXXXXXXXXXXXXXXXXXXXXXXXXXXXXXXXXXXXXXXXXXXXXXXXXXXXXXXXXXXXXXXXXXXXXXXXXXXXXXXXXXXXXXXXXXXXX    .......   ",
"   ......    XXXXXXXXXXXXXXXXXXXXXXXXXXXXXXXXXXXXXXXXXXXXXXXXXXXXXXXXXXXXXXXXXXXXXXXXXXXXXXXXXXXXXXXXXXXXXXXXXXXXX     ......   ",
"   ......    XXXXXXXXXXXXXXXXXXXXXXXXXXXXXXXXXXXXXXXXXXXXXXXXXXXXXXXXXXXXXXXXXXXXXXXXXXXXXXXXXXXXXXXXXXXXXXXXXXXXX     ......   ",
"   ......    XXXXXXXXXXXXXXXXXXXXXXXXXXXXXXXXXXXXXXXXXXXXXXXXXXXXXXXXXXXXXXXXXXXX%%%%%%%%%%%XXXXXXXXXXXXXXXXXXXXXXX    ......   ",
"   ......   XXXXXXXXXXXXXXX+++++++++++XXXXXXXXXXXXXXXXXXXXXXXXX+++++++XXXXXXXXXX%%%%%%%%%%%%%%XXXXXXXXXXXXOOOOOOOOO    ......   ",
"   ......   XXXXXXXXXXXXXX++++++++++++++++XXXXXXXXXXXXXXXXXXX++++++++++XXXXXXXXX%%&&&&&&&&&%%%%XXXXXXXXXXOOOOOOOOOO    ......   ",
"   ......   XXXXXXXXXXXXXX+++@@@@@@@@++++++XXXXXXXXXXXXXXXXX++++@@@@@++XXXXXXXXX%%&&&&&&&&&&%%%XXXXXXXXXXOO........    ......   ",
"   ......   XXXXXXXXXXXXXX++@@@@@@@@@@@@@++XXXXXXXXXXXXXXXXX++@@@@@@@++XXXXXXXXX%%&&&&&&&&&&&%%XXXXXXXXXXOO........    ......   ",
"  .......   XXXXXXXXXXXXXX++@@@@@@@@@@@@@++XXXXXXXXXXXXXXXXX++@@@@@@@++XXXXXXXXX%%&&&&&&&&&&&%%%XXXXXXXXXOO........    ......   ",
"  .......   XXXXXXXXXXXXXX++@@@@@@@@@@@@@++XXXXXXXXXXXXXXXXX++@@@@@@@++XXXXXXXXX%%&&&&&&&&&&&&%%XXXXXXXXXOO........    ......   ",
"  .......   XXXXXXXXXXXXXX++@@@@@@@@@@@@@++XXXXXXXXXXXXXXXXX++@@@@@@@++XXXXXXXXX%%&&&&&&&&&&&&%%XXXXXXXXXOO........    ......   ",
"  .......   XXXXXXXXXXXXXX++@@@@@@@@@@@@@++XXXXXXXXXXXXXXXXX++@@@@@@@++XX#######%%&&&&&&&&&&&&%%XXXXXXXXXOO........    ......   ",
"  .......   XXXXXXXXXXXXXX++@@@@@@@@@@@@@++XXXXXXXXXXXXXXXXX++@@@@@@@++#########%%&&&&&&&&&&&&%%XXXXXXXXXOO........    ......   ",
"  .......   XXXXXXXXXXXXXX++@@@@@@@@@@@@@++XXXXXXXXXXXXXXXXX++@@@@@@@++###$$$$$$%%&&&&&&&&&&&&%%XXXXXXXXXOO........    ......   ",
"  .......   XXXXXX%%%%%%%%++@@@@@@@@@@@@@++XXXXXXXXXXXXXXXXX++@@@@@@@++$$$$$$$$$%%&&&&&&&&&&&&%%XXXXXXXXXOO........    ......   ",
"  .......   %%%%%%%%%%%%%%++@@@@@@@@@@@@@++XXXXXXXXXXXXXXXXX++@@@@@@@++$$$$$$$$$%%&&&&&&&&&&&&%%XXXXXXXXXOO........    ......   ",
"  .......   %%%%%%%%&&&&&&++@@@@@@@@@@@@@++ooooXXXXXXXXXXXXX++@@@@@@@++$$$$$$$$$%%&&&&&&&&&&&&%%XXXXXXXXXOO........    ......   ",
"  .......   &&&&&&&&&&&&&&++@@@@@@@@@@@@@++ooooooooXXXXXXXXX++@@@@@@@++$$$$$$$$$%%&&&&&&&&&&&&%%XXXXXXXXXOO........    ......   ",
"  .......   &&&&&&&&&&&&&&++@@@@@@@@@@@@@++OOOOoooooXXXXXXXX++@@@@@@@++$$$$$$$$$%%%&&&&&&&&&&&%ooooooooooOO........    ......   ",
"  .......   &&&&&&&&&&&&&&++@@@@@@@@@@@@@++OOOOOOOooXXXXXXXX++@@@@@@@++$$$$$$$$$%%%&&&&&&&&&&&oooooooooooOO........    ......   ",
"  .......   &&&&&&&&&&&&&&++@@@@@@@@@@@@+++OOOOOOOooXXXXXXXX++@@@@@@@++$$$$$$$$$$%%&&&&&&&&&&&ooOOOOOOOOOOO........    ......   ",
"   ......   &&&&&&&&&&&&&+++@@@@@@@@@@@@++OOOOOOOOooXXXXXXXX++@@@@@@@++$$$$$$$$$$%%&&&&&&&&&&&ooOOOOOOOOOOO........    ......   ",
"   ......   &&&&&&&&&&&&&++@@@@@@@@@@@@@++OOOOOOOOooXXXXXXXX++@@@@@@@+++$$$$$$$$$%%&&&&&&&&&&&ooOOOOOOOOOOO........    ......   ",
"   ......   &&&&&&&&&&&&&++@@@@@@@@@@@@@++OOOOOOOOooXXXXXXXX++@@@@@@@+++$$$$$$$$$%%&&&&&&&&&&&ooOOOOOOOOOO........     ......   ",
"   ......   &&&&&&&&&&&&&++@@@@@@@@@@@@@++OOOOOOOOooOOOOOXXX++@@@@@@@@++$$$$$$$$$%%&&&&&&&&&&&ooOOOOOOOOOO........     ......   ",
"   ......   &&&&&&&&&&&&&++@@@@@@@@@@@@@++OOOOOOOOooOOOOOOOO++@@@@@@@@++$$$$$$$$$%%&&&&&&&&&&&ooOOOOOOOOOO........    .......   ",
"   ......   &&&&&&&&&&&&&++@@@@@@@@@@@@@++OOOOOOOOoo....OOOO++@@@@@@@@++$$$$$$$$$%%&&&&&&&&&&&ooOOOOOOOOOO........    .......   ",
"   ......   &&&&&&&&&&&&&++@@@@@@@@@@@@@++OOOOOOOOoo........++@@@@@@@@++$$$$$$$$$%%%&&&&&&&&&&ooOOOOOOOOOO........    .......   ",
"   ......    &&&&&&&&&&&&++@@@@@@@@@@@@+++OOOOOOOOoo........++@@@@@@@@++$$$$$$$$$%%%&&&&&&&&&&ooOOOOOOOOOO........    .......   ",
"   ......    &&&&&&&&&&&&++@@@@@@@@@@@@++OOOOOOOOOoo........++@@@@@@@@++$$$$$$$$$$%%&&&&&&&&&&ooOOOOOOOOOO........    .......   ",
"   .......   &&&&&&&&&&&&++@@@@@@@@@@@@++OOOOOOOOooo........++@@@@@@@@++$$$$$$$$$$%%&&&&&&&&&&ooOOOOOOOOOO........    .......   ",
"   .......   &&&&&&&&&&&&++@@@@@@@@@@@@++OOOOOOOOoo.........++@@@@@@@@++$$$$$$$$$$%%&&&&&&&&&&ooOOOOOOOOOO........    .......   ",
"   .......   &&&&&&&&&&&&++@@@@@@@@@@@@++OOOOOOOOoo.........++@@@@@@@@++$$$$$$$$$$%%&&&&&&&&&&ooOOOOOOOOOO........    .......   ",
"   .......   &&&&&&&&&&&&++@@@@@@@@@@@@++OOOOOOOOoo.........++@@@@@@@@++$$$$$$$$$$%%&&&&&&&&&&ooOOOOOOOOOO........    .......   ",
"   .......   &&&&&&&&&&&&++@@@@@@@@@@@@++OOOOOOOOoo.........++@@@@@@@@++$$$$$$$$$$%%&&&&&&&&&&oooOOOOOOOOO........    .......   ",
"   .......   &&&&&&&&&&&&++@@@@@@@@@@@@++OOOOOOOOoo.........++@@@@@@@@++$$$$$$$$$$%%&&&&&&&&&&&ooOOOOOOOOO.......     .......   ",
"   .......   &&&&&&&&&&&&++@@@@@@@@@@@@++OOOOOOOOoo.........++@@@@@@@@++$$$$$$$$$$%%&&&&&&&&&&&ooOOOOOOOOO.......     .......   ",
"   .......   &&&&&&&&&&&&++@@@@@@@@@@@@++OOOOOOOOoo.........++@@@@@@@@++$$$$$$$$$$%%&&&&&&&&&&&ooOOOOOOOOO.......    ........   ",
"   .......    &&&&&&&&&&&++@@@@@@@@@@@@++OOOOOOOOoo.........++@@@@@@@@++$$$$$$$$$$%%&&&&&&&&&&&ooOOOOOOOOO......     ........   ",
"   .......    &&&&&&&&&&&++@@@@@@@@                                                                                  ........   ",
"   ........   &&&&&&&&&                                                                                              ........   ",
"   ........                                                                                                          ........   ",
"   ........                                                                                                         .........   ",
"   ........                        .........................................................................................    ",
"   .........           .....................................................................................................    ",
"   .........................................................................................................................    ",
"    ........................................................................................................................    ",
"    ........................................................................................................................    ",
"     ......................................................................................................................     ",
"      ..................................................................................................................        ",
"          .....................................................                                    .......                      ",
"                                                                                                                                ",
"                                                                                                                                "
};
