/* XPM */
static char *coal_block[] = {
/* columns rows colors chars-per-pixel */
"128 128 2 1 ",
"  c black",
". c #3F48CC",
/* pixels */
"                                                                                                                                ",
"                                                                                                                                ",
"                                                                                                                                ",
"                                                                                                                                ",
"                                                                                                                                ",
"                                                                                                                                ",
"                                                                                                                                ",
"                                                                                                                                ",
"                                                                                                  ..............                ",
"                                         .......                                             .....................              ",
"                                    ..............                                         .......................              ",
"                                 .................                                      ..........................              ",
"                              ....................                                    .............                             ",
"                          ................     ...                                 ...........                                  ",
"                        .............                                             ..........                                    ",
"                      ............                                             ..........                                       ",
"                     ..........                                               .........                                         ",
"                   ........                                                 ........                                            ",
"                  .......                                                  ........                                             ",
"                 ......                                                  .......                                                ",
"                ......                                                  .......                                                 ",
"               .....                                                   ......                                                   ",
"              .....                                                   ......                                                    ",
"             .....                                                   .....                                                      ",
"             ....                                                   ......                                                      ",
"            .....                                                   ....                                                        ",
"           .....                                                   .....                                                        ",
"           ....                                                    ....                                                         ",
"          .....                                                   .....                                                         ",
"          ....                                                    ....                                                          ",
"          .....                                                  .....                                                          ",
"           ...                                                  .....                                                           ",
"            .                                                   ....                                                            ",
"                                                               .....                                                            ",
"                                                               ....                                                             ",
"                                                              .....                                                             ",
"                                                              .....                                                             ",
"                                                              ....                                        ...........           ",
"                                                               ...                                       ..............         ",
"                                                                                                      .................         ",
"                                                                                                    ...................         ",
"                                                                                                  .........                     ",
"                                                                                                 .........                      ",
"                                                                                                .......                         ",
"                                                                                               ......                           ",
"                                                                                              .....                             ",
"                                                                                             .....                              ",
"                                                                                             ....                               ",
"                                                                                            .....                               ",
"                                                                                            ....                                ",
"                                                                                            ....                                ",
"                                                                                           .....                                ",
"                                                                                           ....                                 ",
"                                                                                            ...                                 ",
"                                                                                                                                ",
"                                                                                                                                ",
"                                             ...........                                                                        ",
"                                        ..................                                                                      ",
"                                   .......................                                                                      ",
"                                 .........................                                                                      ",
"                              ................                                                                                  ",
"                            .............                                                                                       ",
"                         ...........                                                                                            ",
"                        ..........                                                                                              ",
"                      .........                                                                                                 ",
"                     ........                                                                                                   ",
"                  ........                                                                                                      ",
"                 ........                                                                                                       ",
"                .......                                                                                                         ",
"               .......                                                                         ..................               ",
"              ......                                                                      .............................         ",
"             ......                                                                     .................................       ",
"             .....                                                                   ....................................       ",
"            .....                                                                  .............                 ........       ",
"            ....                                                                  .........                                     ",
"            ....                                                               ..........                                       ",
"           .....                                                              ........                                          ",
"          .....                                                              .......                                            ",
"          ....                                                              .......                                             ",
"          ....                                                            ......                                                ",
"          ....                                                           ......                                                 ",
"         .....                                                          ......                                                  ",
"         ....                                                          ......                                                   ",
"         ....                                                         .....                                                     ",
"         ....                                                        .....                                                      ",
"         ....                                                       .....                                                       ",
"        .....                                                      .....                                                        ",
"        ....                                                      .....                                                         ",
"         ...                                                      ....                                                          ",
"                                                                 .....                                                          ",
"                                                                .....                                                           ",
"                                                               .....                                                            ",
"                                                               ....                                                             ",
"                                                              .....                                                             ",
"                                                              .....                                                             ",
"                                                             .....                                                              ",
"                                                             ....                                                               ",
"                                                             ....                                                               ",
"                                                            .....                                                               ",
"                       ...........                          ....                                                                ",
"                   .................                       .....                                                                ",
"                 ...................                       .....                                                                ",
"                ....................                       ....                                                    .....        ",
"              ..........                                  .....                                                 ..........      ",
"             .......                                      ....                                               .............      ",
"            ......                                       .....                                              ..............      ",
"           ......                                        .....                                            ..........            ",
"          .....                                           ...                                           .........               ",
"         .....                                                                                        ........                  ",
"        .....                                                                                        ........                   ",
"        ....                                                                                        .......                     ",
"        ....                                                                                       .......                      ",
"       .....                                                                                      .....                         ",
"       ....                                                                                      .....                          ",
"       ....                                                                                     .....                           ",
"       ....                                                                                     ....                            ",
"       ....                                                                                    .....                            ",
"       ....                                                                                    ....                             ",
"        ...                                                                                   .....                             ",
"                                                                                              ....                              ",
"                                                                                              ....                              ",
"                                                                                              ....                              ",
"                                                                                               ...                              ",
"                                                                                                                                ",
"                                                                                                                                ",
"                                                                                                                                ",
"                                                                                                                                ",
"                                                                                                                                "
};
