/* XPM */
static char *mangrove_planks[] = {
/* columns rows colors chars-per-pixel */
"128 128 2 1 ",
"  c #880015",
". c #ED1C24",
/* pixels */
"                                                                                                                                ",
"                                .....................................                                                           ",
"   .............................................................................................                                ",
"  .........................................................................................................................     ",
"  ................................                                 ..........................................................   ",
"  ....                                                                                        ...............................   ",
" ....                                                                                                                   .....   ",
" ....                                                                                                                     ...   ",
" ....                                                                                                                     ...   ",
" ...                                                                                                                      ...   ",
" ...                                                                                                                      ...   ",
" ...                                                                                                                      ...   ",
" ...                                                                                                                      ...   ",
" ...                                                                                                                      ...   ",
" ...    ..                                                                                                                ...   ",
" ...   ....                                                                                                        ..     ...   ",
" ...   ....                                                                                                       ....    ...   ",
" ...    ..                                                                                                        ....    ...   ",
" ...                                                                                                               ..     ...   ",
" ...                                                                                                                      ...   ",
" ...                                                                                                                      ...   ",
" ...                                                                                                                      ...   ",
" ...                                                                                                                      ...   ",
" ...                                                                                                                      ...   ",
" ....                                                                                                                     ...   ",
" ........                                                                                                                ....   ",
" ............................................................................................................................   ",
"  ...........................................................................................................................   ",
"      ......................................................................................................................    ",
"                                                                                                                                ",
"                                                                                                                                ",
".........................................................            ...........................................................",
"..........................................................        ..............................................................",
"..........................................................       ...............................................................",
"                                                      ....      .........                                                       ",
"                                                       ...      .....                                                           ",
"                                                       ...      ....                                                            ",
"                                                       ....     ...                                                             ",
"                                                       ....     ...                                                             ",
"                                                        ...     ...                                                             ",
"                                                        ...     ...                                                             ",
"                                                        ...     ...                                                             ",
"                                                        ...     ...                                                             ",
"                                                        ...     ...    ..                                                       ",
"                                                 ..     ...     ...   ....                                                      ",
"                                                ....    ...     ...   ....                                                      ",
"                                                ....    ...     ...    ..                                                       ",
"                                                 ..     ...     ...                                                             ",
"                                                        ...     ...                                                             ",
"                                                        ...     ...                                                             ",
"                                                        ...     ...                                                             ",
"                                                        ...     ...                                                             ",
"                                                        ...     ...                                                             ",
"                                                        ...     ...                                                             ",
"                                                        ...     ....                                                            ",
"                                                       ....     ....                                                            ",
"                                                       ....      ....                                                           ",
"                                                       ...       .....                                                          ",
"                                                     .....       .......                                                        ",
"                                                    ......        ..........                                                    ",
".........................................................          .............................................................",
"........................................................             ...........................................................",
".......................................................                   ......................................................",
"                                                                                                                                ",
"                                                                                                                                ",
"                                        ..................................................................................      ",
"   .........................................................................................................................    ",
"  ...........................................................................................................................   ",
"  ........................................                                                                             ......   ",
"  ....                                                                                                                   ....   ",
"  ...                                                                                                                     ...   ",
"  ...                                                                                                                     ...   ",
"  ...                                                                                                                     ...   ",
"  ...                                                                                                                     ...   ",
"  ...                                                                                                                     ...   ",
"  ....                                                                                                                    ...   ",
"  ....                                                                                                                    ...   ",
"  ....                                                                                                              ..    ...   ",
"   ...   ..                                                                                                        ....   ...   ",
"   ...  ....                                                                                                       ....   ...   ",
"   ...  ....                                                                                                        ..    ...   ",
"   ...   ..                                                                                                               ...   ",
"   ...                                                                                                                    ...   ",
"   ...                                                                                                                    ...   ",
"   ...                                                                                                                    ...   ",
"   ...                                                                                                                    ...   ",
"   ...                                                                                                                    ...   ",
"   ...                                                                                                                    ...   ",
"   ....                                                                                                                   ...   ",
"   ........................................................................                                              ....   ",
"   ..........................................................................................................................   ",
"    .........................................................................................................................   ",
"                                                                        ....................................................    ",
"                                                                                                                                ",
"                                                                                                                                ",
"                                                                       ....................................................     ",
"............................................................       .............................................................",
".............................................................     ..............................................................",
".............................................................     ......                                                 .......",
"                                                         ....     ...                                                           ",
"                                                          ...     ...                                                           ",
"                                                          ...     ...                                                           ",
"                                                          ...     ...                                                           ",
"                                                          ...     ...                                                           ",
"                                                          ...     ...                                                           ",
"                                                          ...     ...                                                           ",
"                                                          ...     ...                                                           ",
"                                                          ...     ...                                                           ",
"                                                   ..     ...     ...                                                           ",
"                                                  ....    ...     ...    ..                                                     ",
"                                                  ....    ...     ...   ....                                                    ",
"                                                   ..     ...     ...   ....                                                    ",
"                                                          ...    ....    ..                                                     ",
"                                                          ...    ....                                                           ",
"                                                          ...    ...                                                            ",
"                                                          ...    ...                                                            ",
"                                                          ...    ...                                                            ",
"                                                         ....    ...                                                            ",
"                                                         ....    ...                                                            ",
"                                                         ...     ...                                                            ",
"                                                         ...     ...                                                            ",
"                                                        ....     ....                                                           ",
"                                                  ..........     ....                                                           ",
"                         ...................................     ......                                                         ",
"...........................................................       ..............................................................",
".....................................................              .............................................................",
"...........................                                          ...........................................................",
"                                                                                                                                "
};
