/* XPM */
static char *packed_mud[] = {
/* columns rows colors chars-per-pixel */
"128 128 2 1 ",
"  c #880015",
". c #B97A57",
/* pixels */
"................................................................................................................................",
"................................................................................................................................",
"................................................................................................................................",
".......           ...............................................       ........................................................",
".....               ............................................            .........................           ................",
"....                 ..........................................              ......................                  ...........",
"....     ......        .......................................     ...        .....................                    .........",
"...     .........       ......................................    .......      ...................     .......          ........",
"...    ............     .....................................    ..........    ...................    ............       .......",
"...    .............     ...................................     ...........   ..................    ...............      ......",
"...   ...............    ...................................    ............   .................     ................     ......",
"...   ...............    ...................................   .............   .................    ..................     .....",
"...   ................   ...................................   .............   ................    ....................    .....",
"...    ..............    ...................................   .............   ................    .....................    ....",
"...     .............    ...................................   .............   ................   ......................    ....",
"....    ............    ...........           ..............    ............   ................   .......................   ....",
"....      ........      ..........               ...........    ...........    ................   .......................   ....",
".....       ....       ..........                  .........     ..........    ................   .......................   ....",
"......                ..........     .......        .........     ........     ................   ......................    ....",
".......              ..........     ...........      ........       .....     .................   ......................    ....",
"..........        .............    .............      ........               ..................   ......................   .....",
"..............................    ................    .........              ..................   ......................   .....",
"..............................    .................    ..........           ...................   ......................   .....",
".............................    ..................    ........................................    ....................    .....",
".............................    ...................    .......................................    ....................    .....",
".............................   ....................    ........................................    ..................     .....",
".............................   .....................   ........................................      ..............      ......",
".............................   .....................   .........................................        ..........      .......",
".............................   .....................   ..........................................          ...          .......",
".............................   .....................   ...........................................                   ..........",
".............................   .....................   ..............................................               ...........",
".............................   .....................   ..................................................       ...............",
".............................   .....................   ........................................................................",
".............................   .....................   ........................................................................",
".............................    ....................   ........................................................................",
".............................    ....................   ........................................................................",
"..............................    ..................    ........................................................................",
"..............................     .................    ........................................................................",
"...............................     ...............    .........................................................................",
"................................     .............     ..................................     ..................................",
".................................       .........     .................................          ...............................",
".................................                    .................................              ............................",
"...................................                 .................................                 ..........................",
"......................................             ..................................    ......        .........................",
".....................................................................................    .........       .......................",
".........            ...............................................................    ............     .......................",
"........               .............................................................    .............     ......................",
".......                   ..........................................................   ...............     .....................",
"......      ......         .........................................................   ................    .....................",
".....     ..........       .........................................................   .................   .....................",
".....    ..............     ........................................................   .................   .....................",
".....    ...............    ........................................................    ................   .....................",
"....    .................    .......................................................    ................   .....................",
"....    .................    ......................................      ............   ................   .....................",
"....   ...................   ..................................             .........    ...............   .....................",
"....   ...................   ................................                ........      ...........     .....................",
"....   ...................   ...............................        ....      ........        ......       .....................",
"....   ...................   ..............................      ........     .........                   ......................",
"....   ...................   ..............................    ...........     ..........                .......................",
"....   ...................   .............................    .............     ............          ..........................",
"....    ..................   .............................    ..............    ................................................",
"....    .................    .............................   ...............    ................................................",
".....     ...............    ............................    ................   ................................................",
".....      .............    .............................   .................   ................................................",
"......       .........      .............................   .................   ................................................",
".......          ...       ..............................   ................    ..............................           .......",
".........                 ...............................    ...............    .............................              .....",
"...........              ................................    ...............   .............................                ....",
"...............       ....................................    .............    ............................     .......     ....",
"..........................................................    .............    ...........................     .........     ...",
"...........................................................     .........      ...........................    ...........    ...",
"...........................................................        ....       ...........................    ............    ...",
"............................................................                 ............................    .............   ...",
"..............................................................             .............................    ..............   ...",
".................................................................         ..............................    ..............   ...",
"........................................................................................................   ...............   ...",
"........................................................................................................   ...............   ...",
"........................................................................................................   ..............    ...",
"........................................................................................................   ..............    ...",
"....................................       .............................................................   ..............    ...",
"..................................           .....................................      ................    ............    ....",
"................................              .................................           ..............     ...........    ....",
"................................      ...      ................................              ............     .........     ....",
"...............................     ......     ...............................      .          ..........        .....     .....",
"...............................    ........     .............................     .....         ...........               ......",
"..............................    ..........    .............................    .........       ...........              ......",
"..............................    ...........   .............................   ............     ..............         ........",
"..............................   ............   ............................    ..............    ..............................",
"..............................   ............   ............................    ..............    ..............................",
"..............................   ...........    ............................   ................   ..............................",
"..............................    ..........    ............................   ................   ..............................",
"..............................      .......     ............................   ................   ..............................",
"...............................       ...      .............................   ................   ..............................",
"................................              ..............................    ...............   ..............................",
".................................            ...............................     .............    ..............................",
"....................................        .................................     ...........     ..............................",
".............................................................................        .......     ...............................",
"...............          .....................................................                   ...............................",
".............               ....................................................                ................................",
"...........                  ..............................           .............           ..................................",
"...........       .....       ..........................                ........................................................",
"..........     ..........      ........................                  .......................................................",
"..........    ............      ......................       ......       ......................................................",
".........    ..............     .....................      ..........      ..............................           ............",
".........    ...............    ....................     .............     .............................             ...........",
".........   .................   ....................    ...............    ............................               ..........",
"........    .................   ....................    ................   ...........................     ......      .........",
"........    .................   ....................   .................   ..........................     .........     ........",
"........   ..................   ....................   .................   ..........................    ...........    ........",
"........   ..................   ....................   .................   ..........................    ...........     .......",
"........   ..................   ....................   .................   ..........................   .............    .......",
"........   .................    ....................   ................    .........................    ..............   .......",
"........   .................    ....................   ................    .........................    ..............   .......",
"........    ...............    .....................    ...............    .........................    .............    .......",
"........     .............     .....................     .............    ..........................    .............    .......",
".........       ........      .......................    ............     ..........................     ...........     .......",
".........                     .......................      ..........    ............................      ........     ........",
"...........                 ..........................        ....       .............................                  ........",
"..............            .............................                 ...............................                .........",
"........................................................               ..................................            ...........",
"............................................................        ............................................................",
"................................................................................................................................",
"................................................................................................................................",
"................................................................................................................................",
"................................................................................................................................",
"................................................................................................................................",
"................................................................................................................................",
"................................................................................................................................"
};
