/* XPM */
static char *spruce_door_top[] = {
/* columns rows colors chars-per-pixel */
"128 128 4 1 ",
"  c gray50",
". c #880015",
"X c #B97A57",
"o c #C3C3C3",
/* pixels */
"................................................................................................................................",
"................................................................................................................................",
"................................................................................................................................",
".................................................................XXXXXXXXXX...XXXXXXXXXXXXXXXXXXXXX...XXXXXXXXXXXXXXXXXXXXXX....",
".....XXXXXXXXXXXXXXXXXXXXX...XXXXXXXXXXXXXXXXXXXXXX...XXXXXXXXXXXXXXXXXXXXX...XXXXXXXXXXXXXXXXXXXXX...XXXXXXXXXXXXXXXXXXXXXX....",
".....XXXXXXXXXXXXXXXXXXXXX...XXXXXXXXXXXXXXXXXXXXXX...XXXXXXXXXXXXXXXXXXXXX...XXXXXXXXXXXXXXXXXXXXX...XXXXXXXXXXXXXXXXXXXXX.....",
".....XXXXXXXXXXXXXXXXXXXXX...XXXXXXXXXXXXXXXXXXXXXX...XXXXXXXXXXXXXXXXXXXXX...XXXXXXXXXXXXXXXXXXXXX...XXXXXXXXXXXXXXXXXXXXX.....",
".....XXXXXXXXXXXXXXXXXXXXX...XXXXXXXXXXXXXXXXXXXXXX...XXXXXXXXXXXXXXXXXXXXX...XXXXXXXXXXXXXXXXXXXXX...XXXXXXXXXXXXXXXXXXXXX.....",
".....XXXXXXXXXXXXXXXXXXXXX....XXXXXXXXXXXXXXXXXXXXX...XXXXXXXXXXXXXXXXXXXXX...XXXXXXXXXXXXXXXXXXXXX...XXXXXXXXXXXXXXXXXXXXX.....",
".....XXXXXXXXXXXXXXXXXXXXX....XXXXXXXXXXXXXXXXXXXXX...XXXXXXXXXXXXXXXXXXXXX...XXXXXXXXXXXXXXXXXXXXX...XXXXXXXXXXXXXXXXXXXXX.....",
".....XXXXXXXXXXXXXXXXXXXXX....XXXXXXXXXXXXXXXXXXXXX...XXXXXXXXXXXXXXXXXXXXX...XXXXXXXXXXXXXXXXXXXXX...XXXXXXXXXXXXXXXXXXXXXX....",
".....XXXXXXXXXXXXXXXXXXXXXX...XXXXXXXXXXXXXXXXXXXXX...XXXXXXXXXXXXXXXXXXXXX...XXXXXXXXXXXXXXXXXXXXX...XXXXXXXXXXXXXXXXXXXXXX....",
".....XXXXXXXXXXXXXXXXXXXXXX...XXXXXXXXXXXXXXXXXXXXX...XXXXXXXXXXXXXXXXXXXXX...XXXXXXXXXXXXXXXXXXXXX...XXXXXXXXXXXXXXXXXXXXXX....",
".....XXXXXXXXXXXXXXXXXXXXXX...XXXXXXXXXXXXXXXXXXXXX...XXXXXXXXXXXXXXXXXXXXX...XXXXXXXXXXXXXXXXXXXXX...XXXXXXXXXXXXXXXXXXXXX.....",
".....XXXXXXXXXXXXXXXXXXXXXX...XXXXXXXXXXXXXXXXXXXXX...XXXXXXXXXXXXXXXXXXXXX...XXXXXXXXXXXXXXXXXXXXX...XXXXXXXXXXXXXXXXXXXXX.....",
".....XXXXXXXXXXXXXXXXXXXXXX...XXXXXXXXXXXXXXXXXXXXX...XXXXXXXXXXXXXXXXXXXXX...XXXXXXXXXXXXXXXXXXXXX...XXXXXXXXXXXXXXXXXXXXX.....",
".....XXXXXXXXXXXXXXXXXXXXXX....XXXXXXXXXXXXXXXXXXXX....XXXXXXXXXXXXXXXXXXXX...XXXXXXXXXXXXXXXXXXXXX...XXXXXXXXXXXXXXXXXXXXX.....",
".....XXXXXXXXXXXXXXXXXXXXXX....XXXXXXXXXXXXXXXXXXXX....XXXXXXXXXXXXXXXXXXXX...XXXXXXXXXXXXXXXXXXXXX...XXXXXXXXXXXXXXXXXXXXX.....",
".....XXXXXXXXXXXXXXXXXXXXXXX...XXXXXXXXXXXXXXXXXXXX....XXXXXXXXXXXXXXXXXXXX...XXXXXXXXXXXXXXXXXXXXX...XXXXXXXXXXXXXXXXXXXXX.....",
".....XXXXXXXXXXXXXXXXXXXXXXX...XXXXXXXXXXXXXXXXXXXXX...XXXXXXXXXXXXXXXXXXXX...XXXXXXXXXXXXXXXXXXXXX...XXXXXXXXXXXXXXXXXXXXX.....",
".....XXXXXXXXXXXXXXXXXXXXXXX...XXXXXXXXXXXXXXXXXXXXX...XXXXXXXXXXXXXXXXXXXX...XXXXXXXXXXXXXXXXXXXXX...XXXXXXXXXXXXXXXXXXXXX.....",
".....XXXXXXXXXXXXXXXXXXXXXXX...XXXXXXXXXXXXXXXXXXXXX...XXXXXXXXXXXXXXXXXXXX...XXXXXXXXXXXXXXXXXXXXX...XXXXXXXXXXXXXXXXXXXXX.....",
".....XXXXXXXXXXXXXXXXXXXXXXX...XXXXXXXXXXXXXXXXXXXXX...XXXXXXXXXXXXXXXXXXXX...XXXXXXXXXXXXXXXXXXXXX...XXXXXXXXXXXXXXXXXXXXX.....",
".....XXXXXXXXXXXXXXXXXXXXXXX...XXXXXXXXXXXXXXXXXXXXX...XXXXXXXXXXXXXXXXXXXX...XXXXXXXXXXXXXXXXXXXXX...XXXXXXXXXXXXXXXXXXXX......",
".....XXXXXXXXXXXXXXXXXXXXXXX...XXXXXXXXXXXXXXXXXXXXX...XXXXXXXXXXXXXXXXXXXX...XXXXXXXXXXXXXXXXXXXXX...XXXXXXXXXXXXXXXXXXXX......",
".....XXXXXXXXXXXXXXXXXXXXXXX...XXXXXXXXXXXXXXXXXXXXX...XXXXXXXXXXXXXXXXXXXX...XXXXXXXXXXXXXXXXXXXXX....XXXXXXXXXXXXXXXXXXX......",
".....XXXXXXXXXXXXXXXXXXXXXXX...XXXXXXXXXXXXXXXXXXXXX...XXXXXXXXXXXXXXXXXXXX...XXXXXXXXXXXXXXXXXXXXX....XXXXXXXXXXXXXXXXXXX......",
".....XXXXXXXXXXXXXXXXXXXXXXX...XXXXXXXXXXXXXXXXXXXXX...XXXXXXXXXXXXXXXXXXXX...XXXXXXXXXXXXXXXXXXXXX....XXXXXXXXXXXXXXXXXXX......",
".....XXXXXXXXXXXXXXXXXXXXXXX...XXXXXXXXXXXXXXXXXXXXX...XXXXXXXXXXXXXXXXXXXX...XXXXXXXXXXXXXXXXXXXXXX...XXXXXXXXXXXXXXXXXXX......",
".....XXXXXXXXXXXXXXXXXXXXXX....XXXXXXXXXXXXXXXXXXXXX...XXXXXXXXXXXXXXXXXXXX...XXXXXXXXXXXXXXXXXXXXXX...XXXXXXXXXXXXXXXXXXX......",
".....XXXXXXXXXXXXXXXXXXXXXX....XXXXXXXXXXXXXXXXXXXXX...XXXXXXXXXXXXXXXXXXXX...XXXXXXXXXXXXXXXXXXXXXX...XXXXXXXXXXXXXXXXXXX......",
"oooo.XXXXXXXXXXXXXXXXXXXXXX....XXXXXXXXXXXXXXXXXXXXX...XXXXXXXXXXXXXXXXXXXX...XXXXXXXXXXXXXXXXXXXXXX...XXXXXXXXXXXXXXXXXXX......",
"ooooooXXXXXXXXXXXXXXXXXXXXX...XXXXXXXXXXXXXXXXXXXXXX...XXXXXXXXXXXXXXXXXXXX...XXXXXXXXXXXXXXXXXXXXXX...XXXXXXXXXXXXXXXXXXX......",
"oooooooXXXXXXXXXXXXXXXXXXXX...XXXXXXXXXXXXXXXXXXXXXX...XXXXXXXXXXXXXXXXXXXX...XXXXXXXXXXXXXXXXXXXXXX...XXXXXXXXXXXXXXXXXXX......",
" oooooooXXXXXXXXXXXXXXXXXXX...XXXXXXXXXXXXXXXXXXXXXX...XXXXXXXXXXXXXXXXXXX....XXXXXXXXXXXXXXXXXXXXXX...XXXXXXXXXXXXXXXXXXX......",
"   oooooXXXXXXXXXXXXXXXXXX....XXXXXXXXXXXXXXXXXXXXX....XXXXXXXXXXXXXXXXXXX....XXXXXXXXXXXXXXXXXXXXXX...XXXXXXXXXXXXXXXXXXX......",
"    ooooXXXXXXXXXXXXXXXXXX....XXXXXXXXXXXXXXXXXXXXXoooooooooooooooooooooooooooooooooXXXXXXXXXXXXXXXX...XXXXXXXXXXXXXXXXXXX......",
"     ooooooooooooooooooooooooooXXXXXXXXXXXXXoooooooooooooooooooooooooooooooooooooooooooooooXXXXXXXXX...XXXXXXXXXXXXXXXXXXXX.....",
"     oooooooooooooooooooooooooooooooooooooooooooooooooooooooooooooooooooooooooooooooooooooooooooooooooooXXXXXXXXXXXXXXXXXXX.....",
"     ooooooooooooooooooooooooooooooooooooooooooooooooo                           oooooooooooooooooooooooooooooooooooooooooooo...",
"     ooo                    oooooooooooooooooo                                          oooooooooooooooooooooooooooooooooooooo..",
"     ooo                                                                                             ooooooooooooooooooooooooo..",
"     ooo                                                                                                                  ooooo.",
"     ooo                                                                                                                   oooo.",
"    oooo                                                                                                                   oooo.",
"    oooo   oooooooooooooooooooooooooooo                             oooooooooooooooooooooo                                  ooo.",
"   ooooooooooooooooooooooooooooooooooooooooooooooooooooooooooooooooooooooooooooooooooooooooooooo                           oooo.",
"  ooooooooooooooooooooooooooooooooooooooooooooooooooooooooooooooooooooooooooooooooooooooooooooooooooooooooo              oooooo.",
"ooooooooooooooXXXXXXXXXXXX...XXXXXXXXooooooooooooooooooooooooooooooooooXXX...XXXXXXXXXXoooooooooooooooooooooooooooooooooooooooo.",
"ooooooXXXXXXXXXXXXXXXXXXXX...XXXXXXXXXXXXXXXXXXXXX...XXXXXXXXXXXXXXXXXXXXX...XXXXXXXXXXXXXXXXooooooooooooooooooooooooooooooooo..",
"oooo.XXXXXXXXXXXXXXXXXXXXX...XXXXXXXXXXXXXXXXXXXXX...XXXXXXXXXXXXXXXXXXXXX...XXXXXXXXXXXXXXXXXXXXXXX....oooooooooooooooooooo....",
".....XXXXXXXXXXXXXXXXXXXXX...XXXXXXXXXXXXXXXXXXXXX...XXXXXXXXXXXXXXXXXXXX....XXXXXXXXXXXXXXXXXXXXXXX....XXXXXXXXXXXXXXXXXXXX....",
".....XXXXXXXXXXXXXXXXXXXXX...XXXXXXXXXXXXXXXXXXXXX...XXXXXXXXXXXXXXXXXXXX....XXXXXXXXXXXXXXXXXXXXXXX...XXXXXXXXXXXXXXXXXXXXX....",
".....XXXXXXXXXXXXXXXXXXXXX...XXXXXXXXXXXXXXXXXXXXX...XXXXXXXXXXXXXXXXXXXX....XXXXXXXXXXXXXXXXXXXXXXX...XXXXXXXXXXXXXXXXXXXXX....",
".....XXXXXXXXXXXXXXXXXXXXX...XXXXXXXXXXXXXXXXXXXXX...XXXXXXXXXXXXXXXXXXXX...XXXXXXXXXXXXXXXXXXXXXXXX...XXXXXXXXXXXXXXXXXXXXX....",
".....XXXXXXXXXXXXXXXXXXXXX...XXXXXXXXXXXXXXXXXXXXX...XXXXXXXXXXXXXXXXXXXX...XXXXXXXXXXXXXXXXXXXXXXXX...XXXXXXXXXXXXXXXXXXXXX....",
".....XXXXXXXXXXXXXXXXXXXXX....XXXXXXXXXXXXXXXXXXXX...XXXXXXXXXXXXXXXXXXXX...XXXXXXXXXXXXXXXXXXXXXXXX...XXXXXXXXXXXXXXXXXXXXX....",
".....XXXXXXXXXXXXXXXXXXXXX....XXXXXXXXXXXXXXXXXXXX...XXXXXXXXXXXXXXXXXXXX...XXXXXXXXXXXXXXXXXXXXXXXX...XXXXXXXXXXXXXXXXXXXXX....",
".....XXXXXXXXXXXXXXXXXXXXX....XXXXXXXXXXXXXXXXXXXX...XXXXXXXXXXXXXXXXXXXX...XXXXXXXXXXXXXXXXXXXXXXXX...XXXXXXXXXXXXXXXXXXXXX....",
".....XXXXXXXXXXXXXXXXXXXXXX...XXXXXXXXXXXXXXXXXXXX...XXXXXXXXXXXXXXXXXXXX...XXXXXXXXXXXXXXXXXXXXXXXX...XXXXXXXXXXXXXXXXXXXXX....",
".....XXXXXXXXXXXXXXXXXXXXXX...XXXXXXXXXXXXXXXXXXXX...XXXXXXXXXXXXXXXXXXXX...XXXXXXXXXXXXXXXXXXXXXXXX...XXXXXXXXXXXXXXXXXXXXX....",
".....XXXXXXXXXXXXXXXXXXXXXX...XXXXXXXXXXXXXXXXXXXX...XXXXXXXXXXXXXXXXXXXX...XXXXXXXXXXXXXXXXXXXXXXXX...XXXXXXXXXXXXXXXXXXXXXX...",
".....XXXXXXXXXXXXXXXXXXXXXX...XXXXXXXXXXXXXXXXXXXX....XXXXXXXXXXXXXXXXXXX...XXXXXXXXXXXXXXXXXXXXXXX....XXXXXXXXXXXXXXXXXXXXXX...",
".....XXXXXXXXXXXXXXXXXXXXXX...XXXXXXXXXXXXXXXXXXXX....XXXXXXXXXXXXXXXXXXX....XXXXXXXXXXXXXXXXXXXXXX....XXXXXXXXXXXXXXXXXXXXXX...",
".....XXXXXXXXXXXXXXXXXXXXXX...XXXXXXXXXXXXXXXXXXXXX...XXXXXXXXXXXXXXXXXXX....XXXXXXXXXXXXXXXXXXXXXX....XXXXXXXXXXXXXXXXXXXXXX...",
".....XXXXXXXXXXXXXXXXXXXXXX....XXXXXXXXXXXXXXXXXXXX...XXXXXXXXXXXXXXXXXXX....XXXXXXXXXXXXXXXXXXXXXX...XXXXXXXXXXXXXXXXXXXXXXX...",
".....XXXXXXXXXXXXXXXXXXXXXX....XXXXXXXXXXXXXXXXXXXX...XXXXXXXXXXXXXXXXXXXX...XXXXXXXXXXXXXXXXXXXXXX...XXXXXXXXXXXXXXXXXXXXXXX...",
".....XXXXXXXXXXXXXXXXXXXXXXX...XXXXXXXXXXXXXXXXXXXX...XXXXXXXXXXXXXXXXXXXX....XXXXXXXXXXXXXXXXXXXXX...XXXXXXXXXXXXXXXXXXXXXXX...",
".....XXXXXXXXXXXXXXXXXXXXXXX...XXXXXXXXXXXXXXXXXXXX...XXXXXXXXXXXXXXXXXXXX....XXXXXXXXXXXXXXXXXXXXX...XXXXXXXXXXXXXXXXXXXXXXX...",
".....XXXXXXXXXXXXXXXXXXXXXXX....XXXXXXXXXXXXXXXXXXX...XXXXXXXXXXXXXXXXXXXX....XXXXXXXXXXXXXXXXXXXXX...XXXXXXXXXXXXXXXXXXXXXXX...",
".....XXXXXXXXXXXXXXXXXXXXXXX....XXXXXXXXXXXXXXXXXXX...XXXXXXXXXXXXXXXXXXXXX...XXXXXXXXXXXXXXXXXXXXX...XXXXXXXXXXXXXXXXXXXXXXX...",
".....XXXXXXXXXXXXXXXXXXXXXXX....XXXXXXXXXXXXXXXXXXX...XXXXXXXXXXXXXXXXXXXXX...XXXXXXXXXXXXXXXXXXXXX...XXXXXXXXXXXXXXXXXXXXXX....",
".....XXXXXXXXXXXXXXXXXXXXXXXX...XXXXXXXXXXXXXXXXXXX...XXXXXXXXXXXXXXXXXXXXX...XXXXXXXXXXXXXXXXXXXXX...XXXXXXXXXXXXXXXXXXXXXX....",
".....XXXXXXXXXXXXXXXXXXXXXXXX...XXXXXXXXXXXXXXXXXXX...XXXXXXXXXXXXXXXXXXXXX...XXXXXXXXXXXXXXXXXXXXX...XXXXXXXXXXXXXXXXXXXXXX....",
".....XXXXXXXXXXXXXXXXXXXXXXXX...XXXXXXXXXXXXXXXXXXX....XXXXXXXXXXXXXXXXXXXX....XXXXXXXXXXXXXXXXXXXX...XXXXXXXXXXXXXXXXXXXXX.....",
".....XXXXXXXXXXXXXXXXXXXXXXXX...XXXXXXXXXXXXXXXXXXX....XXXXXXXXXXXXXXXXXXXX....XXXXXXXXXXXXXXXXXXXX...XXXXXXXXXXXXXXXXXXXXX.....",
".....XXXXXXXXXXXXXXXXXXXXXXXX...XXXXXXXXXXXXXXXXXXX....XXXXXXXXXXXXXXXXXXXX....XXXXXXXXXXXXXXXXXXXX...XXXXXXXXXXXXXXXXXXXXX.....",
"....XXXXXXXXXXXXXXXXXXXXXXXX....XXXXXXXXXXXXXXXXXXXX...XXXXXXXXXXXXXXXXXXXXX...XXXXXXXXXXXXXXXXXXXX....XXXXXXXXXXXXXXXXXXXX.....",
"....XXXXXXXXXXXXXXXXXXXXXXXX....XXXXXXXXXXXXXXXXXXXX...XXXXXXXXXXXXXXXXXXXXX...XXXXXXXXXXXXXXXXXXXX....XXXXXXXXXXXXXXXXXXXX.....",
"....XXXXXXXXXXXXXXXXXXXXXXXX....XXXXXXXXXXXXXXXXXXXX...XXXXXXXXXXXXXXXXXXXXX...XXXXXXXXXXXXXXXXXXXX....XXXXXXXXXXXXXXXXXXXX.....",
"....XXXXXXXXXXXXXXXXXXXXXXXX...XXXXXXXXXXXXXXXXXXXXX...XXXXXXXXXXXXXXXXXXXXX...XXXXXXXXXXXXXXXXXXXXX...XXXXXXXXXXXXXXXXXXXX.....",
"....XXXXXXXXXXXXXXXXXXXXXXXX...XXXXXXXXXXXXXXXXXXXXX....XXXXXXXXXXXXXXXXXXXX...XXXXXXXXXXXXXXXXXXXXX...XXXXXXXXXXXXXXXXXXXX.....",
".....XXXXXXXXXXXXXXXXXXXXXXX...XXXXXXXXXXXXXXXXXXXXX....XXXXXXXXXXXXXXXXXXXX...XXXXXXXXXXXXXXXXXXXXX...XXXXXXXXXXXXXXXXXXXX.....",
".....XXXXXXXXXXXXXXXXXXXXXXX...XXXXXXXXXXXXXXXXXXXXX....XXXXXXXXXXXXXXXXXXXX...XXXXXXXXXXXXXXXXXXXXX...XXXXXXXXXXXXXXXXXXXX.....",
".....XXXXXXXXXXXXXXXXXXXXXXX...XXXXXXXXXXXXXXXXXXXXXX...XXXXXXXXXXXXXXXXXXXX...XXXXXXXXXXXXXXXXXXXXX...XXXXXXXXXXXXXXXXXXXX.....",
".....XXXXXXXXXXXXXXXXXXXXXXX...XXXXXXXXXXXXXXXXXXXXXX...XXXXXXXXXXXXXXXXXXXX...XXXXXXXXXXXXXXXXXXXXX...XXXXXXXXXXXXXXXXXXXX.....",
".....XXXXXXXXXXXXXXXXXXXXXXX...XXXXXXXXXXXXXXXXXXXXXX...XXXXXXXXXXXXXXXXXXXX...XXXXXXXXXXXXXXXXXXXXX...XXXXXXXXXXXXXXXXXXXX.....",
".....XXXXXXXXXXXXXXXXXXXXXXX...XXXXXXXXXXXXXXXXXXXXXX....XXXXXXXXXXXXXXXXXXX...XXXXXXXXXXXXXXXXXXXXX...XXXXXXXXXXXXXXXXXXXX.....",
".....XXXXXXXXXXXXXXXXXXXXXXX...XXXXXXXXXXXXXXXXXXXXXX....XXXXXXXXXXXXXXXXXXX...XXXXXXXXXXXXXXXXXXXXX...XXXXXXXXXXXXXXXXXXXX.....",
".....XXXXXXXXXXXXXXXXXXXXXXX...XXXXXXXXXXXXXXXXXXXXXX....XXXXXXXXXXXXXXXXXXX...XXXXXXXXXXXXXXXXXXXX....XXXXXXXXXXXXXXXXXXXX.....",
".....XXXXXXXXXXXXXXXXXXXXXXX...XXXXXXXXXXXXXXXXXXXXXXX...XXXXXXXXXXXXXXXXXX....XXXXXXXXXXXXXXXXXXXX....XXXXXXXXXXXXXXXXXXXX.....",
".....XXXXXXXXXXXXXXXXXXXXXXX...XXXXXXXXXXXXXXXXXXXXXXX...XXXXXXXXXXXXXXXXXX....XXXXXXXXXXXXXXXXXXXX....XXXXXXXXXXXXXXXXXXXXX....",
".....XXXXXXXXXXXXXXXXXXXXXXX...XXXXXXXXXXXXXXXXXXXXXXX...XXXXXXXXXXXXXXXXXX....XXXXXXXXXXXXXXXXXXXX...XXXXXXXXXXXXXXXXXXXXXX....",
".....XXXXXXXXXXXXXXXXXXXXXXX...XXXXXXXXXXXXXXXXXXXXXXX...XXXXXXXXXXXXXXXXXX...XXXXXXXXXXXXXXXXXXXXX...XXXXXXXXXXXXXXXXXXXXXX....",
".....XXXXXXXXXXXXXXXXXXXXXXX...XXXXXXXXXXXXXXXXXXXXXXX...XXXXXXXXXXXXXXXXX....XXXXXXXXXXXXXXXXXXXXX...XXXXXXXXXXXXXXXXXXXXXX....",
".....XXXXXXXXXXXXXXXXXXXXXXX...XXXXXXXXXXXXXXXXXXXXXXX...XXXXXXXXXXXXXXXXX....XXXXXXXXXXXXXXXXXXXXX...XXXXXXXXXXXXXXXXXXXXXX....",
".....XXXXXXXXXXXXXXXXXXXXXXX...XXXXXXXXXXXXXXXXXXXXXXX...XXXXXXXXXXXXXXXXX....XXXXXXXXXXXXXXXXXXXXX...XXXXXXXXXXXXXXXXXXXXXX....",
".....XXXXXXXXXXXXXXXXXXXXXXX...XXXXXXXXXXXXXXXXXXXXXXX...XXXXXXXXXXXXXXXXX...XXXXXXXXXXXXXXXXXXXXXX...XXXXXXXXXXXXXXXXXXXXXX....",
".....XXXXXXXXXXXXXXXXXXXXXXX...XXXXXXXXXXXXXXXXXXXXXXX...XXXXXXXXXXXXXXXXX...XXXXXXXXXXXXXXXXXXXXXX...XXXXXXXXXXXXXXXXXXXXXX....",
".....XXXXXXXXXXXXXXXXXXXXXXX...XXXXXXXXXXXXXXXXXXXXXXX...XXXXXXXXXXXXXXXXX...XXXXXXXXXXXXXXXXXXXXXX...XXXXXXXXXXXXXXXXXXXXXX....",
".....XXXXXXXXXXXXXXXXXXXXXXX...XXXXXXXXXXXXXXXXXXXXXX....XXXXXXXXXXXXXXXXX...XXXXXXXXXXXXXXXXXXXXXX...XXXXXXXXXXXXXXXXXXXXXX....",
".....XXXXXXXXXXXXXXXXXXXXXXX...XXXXXXXXXXXXXXXXXXXXXX....XXXXXXXXXXXXXXXXX...XXXXXXXXXXXXXXXXXXXXXX...XXXXXXXXXXXXXXXXXXXXXX....",
".....XXXXXXXXXXXXXXXXXXXXXXX...XXXXXXXXXXXXXXXXXXXXXX....XXXXXXXXXXXXXXXXX...XXXXXXXXXXXXXXXXXXXXXX...XXXXXXXXXXXXXXXXXXXXXX....",
".....XXXXXXXXXXXXXXXXXXXXXXX...XXXXXXXXXXXXXXXXXXXXXX...XXXXXXXXXXXXXXXXXX....XXXXXXXXXXXXXXXXXXXXX...XXXXXXXXXXXXXXXXXXXXX.....",
".....XXXXXXXXXXXXXXXXXXXXXX....XXXXXXXXXXXXXXXXXXXXXX...XXXXXXXXXXXXXXXXXX....XXXXXXXXXXXXXXXXXXXXX...XXXXXXXXXXXXXXXXXXXXX.....",
".....XXXXXXXXXXXXXXXXXXXXXX....XXXXXXXXXXXXXXXXXXXXX....XXXXXXXXXXXXXXXXXX....XXXXXXXXXXXXXXXXXXXXX...XXXXXXXXXXXXXXXXXXXXX.....",
".....XXXXXXXXXXXXXXXXXXXXXX....XXXXXXXXXXXXXXXXXXXXX....XXXXXXXXXXXXXXXXXXX...XXXXXXXXXXXXXXXXXXXXX...XXXXXXXXXXXXXXXXXXXXX.....",
".....XXXXXXXXXXXXXXXXXXXXXX...XXXXXXXXXXXXXXXXXXXXXX....XXXXXXXXXXXXXXXXXXX...XXXXXXXXXXXXXXXXXXXXX...XXXXXXXXXXXXXXXXXXXXX.....",
".....XXXXXXXXXXXXXXXXXXXXXX...XXXXXXXXXXXXXXXXXXXXXX...XXXXXXXXXXXXXXXXXXXX...XXXXXXXXXXXXXXXXXXXXX...XXXXXXXXXXXXXXXXXXXXX.....",
".....XXXXXXXXXXXXXXXXXXXXXX...XXXXXXXXXXXXXXXXXXXXXX...XXXXXXXXXXXXXXXXXXXX...XXXXXXXXXXXXXXXXXXXXX...XXXXXXXXXXXXXXXXXXXXX.....",
".....XXXXXXXXXXXXXXXXXXXXXX...XXXXXXXXXXXXXXXXXXXXXX...XXXXXXXXXXXXXXXXXXXX....XXXXXXXXXXXXXXXXXXXX...XXXXXXXXXXXXXXXXXXXXX.....",
".....XXXXXXXXXXXXXXXXXXXXXX...XXXXXXXXXXXXXXXXXXXXXX...XXXXXXXXXXXXXXXXXXXX....XXXXXXXXXXXXXXXXXXXX...XXXXXXXXXXXXXXXXXXXXX.....",
".....XXXXXXXXXXXXXXXXXXXXXX...XXXXXXXXXXXXXXXXXXXXXX...XXXXXXXXXXXXXXXXXXXXX...XXXXXXXXXXXXXXXXXXXX...XXXXXXXXXXXXXXXXXXXXX.....",
".....XXXXXXXXXXXXXXXXXXXXXX...XXXXXXXXXXXXXXXXXXXXXX...XXXXXXXXXXXXXXXXXXXXX...XXXXXXXXXXXXXXXXXXXX...XXXXXXXXXXXXXXXXXXXXXX....",
"......XXXXXXXXXXXXXXXXXXXXX...XXXXXXXXXXXXXXXXXXXXXX...XXXXXXXXXXXXXXXXXXXXX...XXXXXXXXXXXXXXXXXXXX...XXXXXXXXXXXXXXXXXXXXXX....",
"......XXXXXXXXXXXXXXXXXXXXX...XXXXXXXXXXXXXXXXXXXXXX...XXXXXXXXXXXXXXXXXXXXX...XXXXXXXXXXXXXXXXXXXX...XXXXXXXXXXXXXXXXXXXXXX....",
"......XXXXXXXXXXXXXXXXXXXXX...XXXXXXXXXXXXXXXXXXXXXX...XXXXXXXXXXXXXXXXXXXXX...XXXXXXXXXXXXXXXXXXXX...XXXXXXXXXXXXXXXXXXXXXX....",
"......XXXXXXXXXXXXXXXXXXXXX...XXXXXXXXXXXXXXXXXXXXXX...XXXXXXXXXXXXXXXXXXXXX...XXXXXXXXXXXXXXXXXXXX...XXXXXXXXXXXXXXXXXXXXXX....",
"oooooooXXXXXXXXXXXXXXXXXXXX...XXXXXXXXXXXXXXXXXXXXXX...XXXXXXXXXXXXXXXXXXXXX...XXXXXXXXXXXXXXXXXXXX...XXXXXXXXXXXXXXXXXXXXXX....",
"oooooooXXXXXXXXXXXXXXXXXXXX...XXXXXXXXXXXXXXXXXXXXXX...XXXXXXXXXXXXXXXXXXXXX...XXXXXXXXXXXXXXXXXXXX....XXXXXXXXXXXXXXXXXXXXX....",
"ooooooooXXXXXXXXXXXXXXXXXXX...XXXXXXXXXXXXXXXXXXXXXX...XXXXXXXXXXXXXXXXXXXXX...XXXXXXXXXXXXXXXXXXXX....XXXXXXXXXXXXXXXXXXXXX....",
"    ooooXXXXXXXXXXXXXXXXXXX...XXXXXXXXXXXXXXXXXXXXXX...XXXXXXXXXXXXXXXXXXXXX...XXXXXXXXXXXXXXXXXXXXX...XXXXXXXXXXXXXXXXXXXXX....",
"    ooooXXXXXXXXXXXXXXXXXXX...XXXXXXXXXXXXXXXXXXXXXX...XXXXXXXXXXXXXXXXXXXXX...XXXXXXXXXXXXXXXXXXXXX...XXXXXXXXXXXXXXXXXXXXX....",
"     oooXXXXXXXXXXXXXXXXXXX...XXXXXXXXXXXXXXXXXXXXX....XXXXXXXXXXXXXXXXXXXXX...XXXXXXXXXXXXXXXXXXXXX...XXXXXXXXXXXXXXXXXXXXX....",
"     oooXXXXXXXXXXXXXXXXXXX...XXXXXXXXXXXXXXXXXXXXX....XXXXXXXXXXXXXXXXXXXX....XXXXXXXXXXXXXXXXXXXXX...XXXXXXXXXXXXXXXXXXXXX....",
"     oooXXXXXXXXXXXXXXXXXXX...XXXXXXXXXXXXXXXXXXXXX....XXXXXXXXXXXXXXXXXXXX....XXXXXXXXXXXXXXXXXXXXX...XXXXXXXXXXXXXXXXXXXXX....",
"     oooXXXXXXXXXXXXXXXXXXX...XXXXXXXXXXXXXXXXXXXXX...XXXXXXXXXXXXXXXXXXXXX....XXXXXXXXXXXXXXXXXXXX....XXXXXXXXXXXXXXXXXXXXX....",
"     oooXXXXXXXXXXXXXXXXXXX...XXXXXXXXXXXXXXXXXXXXX...XXXXXXXXXXXXXXXXXXXXX...XXXXXXXXXXXXXXXXXXXXX...XXXXXXXXXXXXXXXXXXXXXX...."
};
